<svg width="215" height="169" viewBox="0 0 215 169" fill="none" xmlns="http://www.w3.org/2000/svg">
<g clip-path="url(#clip0_331_1930)">
<path d="M105.816 38.284H104.931V14.0348C104.931 10.3125 103.452 6.74274 100.82 4.1107C98.188 1.47867 94.6182 4.64137e-06 90.8959 0H39.5207C37.6776 -6.56602e-06 35.8526 0.363008 34.1498 1.06832C32.447 1.77362 30.8998 2.80741 29.5966 4.11066C28.2933 5.4139 27.2595 6.96108 26.5542 8.66386C25.8489 10.3666 25.4858 12.1917 25.4858 14.0347V147.068C25.4858 148.911 25.8488 150.736 26.5542 152.439C27.2595 154.141 28.2933 155.689 29.5965 156.992C30.8998 158.295 32.4469 159.329 34.1497 160.034C35.8525 160.74 37.6775 161.103 39.5206 161.103H90.8958C92.7389 161.103 94.564 160.74 96.2667 160.034C97.9695 159.329 99.5167 158.295 100.82 156.992C102.123 155.689 103.157 154.142 103.862 152.439C104.568 150.736 104.931 148.911 104.931 147.068V55.545H105.816V38.284Z" fill="#3F3D56"/>
<path d="M91.3566 3.98328H84.6504C84.9588 4.73937 85.0766 5.5597 84.9932 6.37201C84.9099 7.18432 84.6281 7.96368 84.1726 8.64142C83.7172 9.31916 83.102 9.87449 82.3814 10.2585C81.6607 10.6425 80.8567 10.8434 80.0401 10.8434H50.6079C49.7913 10.8434 48.9873 10.6425 48.2666 10.2585C47.546 9.87449 46.9308 9.31916 46.4753 8.64142C46.0199 7.96368 45.7381 7.18433 45.6547 6.37202C45.5714 5.55971 45.6891 4.73937 45.9975 3.98328H39.734C36.9542 3.98327 34.2883 5.08751 32.3228 7.05308C30.3572 9.01865 29.2529 11.6845 29.2529 14.4643V147.302C29.2529 148.679 29.524 150.041 30.0508 151.313C30.5775 152.585 31.3495 153.74 32.3227 154.713C33.296 155.687 34.4514 156.459 35.723 156.985C36.9947 157.512 38.3576 157.783 39.7339 157.783H91.3566C94.1364 157.783 96.8022 156.679 98.7678 154.713C100.733 152.748 101.838 150.082 101.838 147.302V14.4643C101.838 13.0879 101.567 11.725 101.04 10.4534C100.513 9.18176 99.7411 8.02635 98.7678 7.05309C97.7946 6.07984 96.6392 5.30781 95.3675 4.78109C94.0959 4.25437 92.733 3.98328 91.3566 3.98328ZM90.2299 65.6076C90.2278 66.327 89.9411 67.0163 89.4325 67.5249C88.9238 68.0336 88.2345 68.3203 87.5151 68.3224H74.3936C73.6742 68.3203 72.9849 68.0336 72.4763 67.5249C71.9676 67.0163 71.6809 66.327 71.6788 65.6076V64.9289C71.6809 64.2096 71.9676 63.5203 72.4763 63.0116C72.9849 62.5029 73.6742 62.2162 74.3936 62.2141H87.5151C88.2345 62.2162 88.9238 62.5029 89.4325 63.0116C89.9411 63.5203 90.2278 64.2096 90.2299 64.9289V65.6076ZM91.7005 53.6172C91.6983 54.3366 91.4117 55.0259 90.903 55.5346C90.3943 56.0433 89.705 56.3299 88.9857 56.3321H41.9291C41.2098 56.33 40.5205 56.0433 40.0118 55.5346C39.5031 55.0259 39.2164 54.3366 39.2143 53.6172V52.9386C39.2164 52.2192 39.5031 51.5299 40.0118 51.0212C40.5205 50.5126 41.2098 50.2259 41.9291 50.2238H88.9857C89.705 50.2259 90.3943 50.5126 90.903 51.0212C91.4117 51.5299 91.6983 52.2192 91.7005 52.9386V53.6172ZM91.7005 41.6269C91.6983 42.3462 91.4117 43.0355 90.903 43.5442C90.3943 44.0529 89.705 44.3396 88.9857 44.3417H41.9291C41.2098 44.3396 40.5205 44.0529 40.0118 43.5442C39.5031 43.0356 39.2164 42.3462 39.2143 41.6269V40.9482C39.2164 40.2288 39.5031 39.5395 40.0118 39.0309C40.5205 38.5222 41.2098 38.2355 41.9291 38.2334H88.9857C89.705 38.2355 90.3943 38.5222 90.903 39.0309C91.4117 39.5395 91.6983 40.2288 91.7005 40.9482V41.6269ZM91.7005 29.6365C91.6983 30.3559 91.4117 31.0452 90.903 31.5539C90.3943 32.0625 89.705 32.3492 88.9857 32.3513H41.9291C41.2098 32.3492 40.5205 32.0625 40.0118 31.5539C39.5031 31.0452 39.2164 30.3559 39.2143 29.6365V28.9578C39.2164 28.2385 39.5031 27.5492 40.0118 27.0405C40.5205 26.5318 41.2098 26.2451 41.9291 26.243H88.9857C89.705 26.2451 90.3943 26.5318 90.903 27.0405C91.4117 27.5492 91.6983 28.2385 91.7005 28.9578V29.6365Z" fill="white"/>
<path d="M42.9474 54.9746C43.822 54.9746 44.531 54.2656 44.531 53.391C44.531 52.5164 43.822 51.8074 42.9474 51.8074C42.0728 51.8074 41.3638 52.5164 41.3638 53.391C41.3638 54.2656 42.0728 54.9746 42.9474 54.9746Z" fill="white"/>
<path d="M48.1505 54.9746C49.0251 54.9746 49.7342 54.2656 49.7342 53.391C49.7342 52.5164 49.0251 51.8074 48.1505 51.8074C47.2759 51.8074 46.5669 52.5164 46.5669 53.391C46.5669 54.2656 47.2759 54.9746 48.1505 54.9746Z" fill="white"/>
<path d="M53.3541 54.9746C54.2288 54.9746 54.9378 54.2656 54.9378 53.391C54.9378 52.5164 54.2288 51.8074 53.3541 51.8074C52.4795 51.8074 51.7705 52.5164 51.7705 53.391C51.7705 54.2656 52.4795 54.9746 53.3541 54.9746Z" fill="white"/>
<path d="M58.5573 54.9746C59.4319 54.9746 60.1409 54.2656 60.1409 53.391C60.1409 52.5164 59.4319 51.8074 58.5573 51.8074C57.6827 51.8074 56.9736 52.5164 56.9736 53.391C56.9736 54.2656 57.6827 54.9746 58.5573 54.9746Z" fill="white"/>
<path d="M75.5246 66.9651C76.3992 66.9651 77.1082 66.2561 77.1082 65.3815C77.1082 64.5069 76.3992 63.7979 75.5246 63.7979C74.6499 63.7979 73.9409 64.5069 73.9409 65.3815C73.9409 66.2561 74.6499 66.9651 75.5246 66.9651Z" fill="white"/>
<path d="M80.7282 66.9651C81.6028 66.9651 82.3118 66.2561 82.3118 65.3815C82.3118 64.5069 81.6028 63.7979 80.7282 63.7979C79.8535 63.7979 79.1445 64.5069 79.1445 65.3815C79.1445 66.2561 79.8535 66.9651 80.7282 66.9651Z" fill="white"/>
<path d="M85.9313 66.9651C86.8059 66.9651 87.5149 66.2561 87.5149 65.3815C87.5149 64.5069 86.8059 63.7979 85.9313 63.7979C85.0567 63.7979 84.3477 64.5069 84.3477 65.3815C84.3477 66.2561 85.0567 66.9651 85.9313 66.9651Z" fill="white"/>
<path d="M92.0647 85.9003H38.398C37.1371 85.9003 35.928 86.4011 35.0364 87.2927C34.1449 88.1842 33.644 89.3934 33.644 90.6542V116.802C33.644 118.062 34.1449 119.272 35.0364 120.163C35.928 121.055 37.1371 121.556 38.398 121.556H92.0647C93.3255 121.556 94.5347 121.055 95.4262 120.163C96.3177 119.272 96.8186 118.063 96.8186 116.802V90.6542C96.8186 89.3934 96.3177 88.1842 95.4262 87.2927C94.5347 86.4011 93.3255 85.9003 92.0647 85.9003ZM37.0702 89.1432C37.1761 89.124 39.6891 88.6964 41.77 89.9485C43.8507 91.2003 44.6502 93.6211 44.6832 93.7235L44.7673 93.9845L44.4973 94.0324C44.112 94.0925 43.7225 94.1211 43.3327 94.1179C42.0958 94.1416 40.8752 93.8339 39.7973 93.2269C37.7166 91.9753 36.9172 89.5545 36.8843 89.4521L36.8001 89.1911L37.0702 89.1432ZM48.7198 113.419H39.1479C38.4498 113.419 37.7802 113.142 37.2866 112.649C36.7929 112.155 36.5156 111.485 36.5156 110.787C36.5156 110.089 36.7929 109.42 37.2866 108.926C37.7802 108.432 38.4498 108.155 39.1479 108.155H48.7198C49.4179 108.155 50.0874 108.432 50.5811 108.926C51.0747 109.42 51.3521 110.089 51.3521 110.787C51.3521 111.485 51.0747 112.155 50.5811 112.649C50.0874 113.142 49.4179 113.419 48.7198 113.419ZM92.2719 112.941C92.2697 113.702 91.9664 114.431 91.4284 114.969C90.8904 115.507 90.1613 115.81 89.4004 115.812H82.2214C81.4605 115.81 80.7314 115.507 80.1934 114.969C79.6554 114.431 79.3521 113.702 79.3499 112.941V108.634C79.3521 107.873 79.6554 107.144 80.1934 106.605C80.7314 106.067 81.4605 105.764 82.2214 105.762H89.4004C90.1613 105.764 90.8904 106.067 91.4284 106.605C91.9664 107.144 92.2697 107.873 92.2719 108.634L92.2719 112.941Z" fill="#EB3583"/>
<path d="M84.5361 112.053H81.6497C81.4436 112.053 81.2459 112.135 81.1002 112.281C80.9544 112.427 80.8726 112.624 80.8726 112.83C80.8726 113.037 80.9544 113.234 81.1002 113.38C81.2459 113.526 81.4436 113.608 81.6497 113.608H84.5361C84.7422 113.608 84.9399 113.526 85.0856 113.38C85.2314 113.234 85.3132 113.037 85.3132 112.83C85.3132 112.624 85.2314 112.427 85.0856 112.281C84.9399 112.135 84.7422 112.053 84.5361 112.053Z" fill="#3F3D56"/>
<path d="M89.8647 112.053H86.9783C86.7722 112.053 86.5745 112.135 86.4288 112.281C86.283 112.427 86.2012 112.624 86.2012 112.83C86.2012 113.037 86.283 113.234 86.4288 113.38C86.5745 113.526 86.7722 113.608 86.9783 113.608H89.8647C90.0709 113.608 90.2685 113.526 90.4142 113.38C90.56 113.234 90.6419 113.037 90.6419 112.83C90.6419 112.624 90.56 112.427 90.4142 112.281C90.2685 112.135 90.0709 112.053 89.8647 112.053Z" fill="#3F3D56"/>
<path d="M84.5356 109.86H81.6492C81.4431 109.86 81.2454 109.941 81.0997 110.087C80.9539 110.233 80.8721 110.431 80.8721 110.637C80.8721 110.843 80.9539 111.041 81.0997 111.186C81.2454 111.332 81.4431 111.414 81.6492 111.414H84.5356C84.7417 111.414 84.9394 111.332 85.0852 111.186C85.2309 111.041 85.3128 110.843 85.3128 110.637C85.3128 110.431 85.2309 110.233 85.0852 110.087C84.9394 109.941 84.7417 109.86 84.5356 109.86Z" fill="#3F3D56"/>
<path d="M89.8643 109.86H86.9778C86.7717 109.86 86.574 109.941 86.4283 110.087C86.2826 110.233 86.2007 110.431 86.2007 110.637C86.2007 110.843 86.2826 111.041 86.4283 111.186C86.574 111.332 86.7717 111.414 86.9778 111.414H89.8643C90.0704 111.414 90.268 111.332 90.4138 111.186C90.5595 111.041 90.6414 110.843 90.6414 110.637C90.6414 110.431 90.5595 110.233 90.4138 110.087C90.268 109.941 90.0704 109.86 89.8643 109.86Z" fill="#3F3D56"/>
<path d="M84.5356 107.71H81.6492C81.4431 107.71 81.2454 107.792 81.0997 107.938C80.9539 108.084 80.8721 108.281 80.8721 108.487C80.8721 108.694 80.9539 108.891 81.0997 109.037C81.2454 109.183 81.4431 109.265 81.6492 109.265H84.5356C84.7417 109.265 84.9394 109.183 85.0852 109.037C85.2309 108.891 85.3128 108.694 85.3128 108.487C85.3128 108.281 85.2309 108.084 85.0852 107.938C84.9394 107.792 84.7417 107.71 84.5356 107.71Z" fill="#3F3D56"/>
<path d="M89.8643 107.71H86.9778C86.7717 107.71 86.574 107.792 86.4283 107.938C86.2826 108.084 86.2007 108.281 86.2007 108.487C86.2007 108.694 86.2826 108.891 86.4283 109.037C86.574 109.183 86.7717 109.265 86.9778 109.265H89.8643C90.0704 109.265 90.268 109.183 90.4138 109.037C90.5595 108.891 90.6414 108.694 90.6414 108.487C90.6414 108.281 90.5595 108.084 90.4138 107.938C90.268 107.792 90.0704 107.71 89.8643 107.71Z" fill="#3F3D56"/>
<path d="M129.235 95.75H122.235V102.75H129.235V95.75Z" fill="#E6E6E6"/>
<path d="M113.985 100H125.485V111.5H113.985V100ZM124.985 100.5H114.485V111H124.985V100.5Z" fill="#3F3D56"/>
<path d="M7.48486 38H0.484863V45H7.48486V38Z" fill="#E6E6E6"/>
<path d="M15.7349 40.75H4.23486V29.25H15.7349V40.75ZM4.73486 40.25H15.2349V29.75H4.73486V40.25Z" fill="#3F3D56"/>
<path d="M163.754 165.354H160.689L159.231 153.532H163.754L163.754 165.354Z" fill="#FFB8B8"/>
<path d="M158.5 164.478H164.411V168.2H154.778C154.778 167.213 155.17 166.266 155.868 165.568C156.566 164.87 157.513 164.478 158.5 164.478Z" fill="#2F2E41"/>
<path d="M179.004 165.354H175.939L174.481 153.532H179.004L179.004 165.354Z" fill="#FFB8B8"/>
<path d="M173.75 164.478H179.661V168.2H170.028C170.028 167.213 170.42 166.266 171.118 165.568C171.816 164.87 172.763 164.478 173.75 164.478Z" fill="#2F2E41"/>
<path d="M148.379 123.076C148.159 122.751 148.012 122.382 147.95 121.994C147.887 121.606 147.911 121.21 148.018 120.832C148.126 120.455 148.315 120.105 148.572 119.808C148.829 119.512 149.148 119.275 149.507 119.115L159.926 90.3984L165.052 93.1963L153.156 120.639C153.385 121.259 153.379 121.942 153.138 122.557C152.897 123.173 152.439 123.679 151.85 123.979C151.261 124.28 150.583 124.354 149.943 124.187C149.303 124.021 148.747 123.625 148.379 123.076Z" fill="#FFB8B8"/>
<path d="M177.439 128.472C177.098 128.276 176.804 128.009 176.578 127.688C176.352 127.367 176.2 127 176.131 126.614C176.062 126.227 176.078 125.83 176.179 125.451C176.28 125.071 176.463 124.719 176.715 124.418L173.488 94.0403L179.322 94.3068L180.664 124.187C181.141 124.644 181.435 125.26 181.488 125.919C181.542 126.578 181.352 127.234 180.954 127.762C180.557 128.29 179.979 128.654 179.331 128.785C178.684 128.916 178.01 128.804 177.439 128.472Z" fill="#FFB8B8"/>
<path d="M168.131 85.0793C171.522 85.0793 174.271 82.3303 174.271 78.9391C174.271 75.5479 171.522 72.7988 168.131 72.7988C164.74 72.7988 161.991 75.5479 161.991 78.9391C161.991 82.3303 164.74 85.0793 168.131 85.0793Z" fill="#FFB8B8"/>
<path d="M177.399 121.563H158.888L158.91 121.419C158.943 121.204 162.209 99.8093 159.8 92.81C159.559 92.1222 159.58 91.3693 159.86 90.6962C160.14 90.0231 160.659 89.4774 161.318 89.1641C164.761 87.5428 171.37 85.5463 176.948 90.3914C177.769 91.1161 178.41 92.0219 178.82 93.037C179.231 94.0522 179.399 95.1489 179.313 96.2404L177.399 121.563Z" fill="#CCCCCC"/>
<path d="M162.443 102.971L154.109 101.28L158.015 92.0228C158.249 91.1262 158.829 90.3588 159.628 89.8891C160.427 89.4194 161.379 89.2857 162.276 89.5173C163.173 89.749 163.942 90.327 164.414 91.1247C164.885 91.9223 165.021 92.8744 164.792 93.7722L162.443 102.971Z" fill="#CCCCCC"/>
<path d="M173.117 106.111L172.616 94.6252C172.236 92.4661 173.472 90.4251 175.373 90.0915C177.274 89.7591 179.131 91.2565 179.512 93.4314L181.396 104.163L173.117 106.111Z" fill="#CCCCCC"/>
<path d="M176.784 120.188C179.762 131.532 180.087 145.955 179.284 161.688L175.284 161.188L168.034 131.188L164.034 161.688L159.534 161.438C158.189 144.931 156.88 130.759 159.034 121.438L176.784 120.188Z" fill="#2F2E41"/>
<path d="M172.177 83.6844C171.031 84.9046 168.904 84.2496 168.755 82.5827C168.743 82.4532 168.744 82.323 168.757 82.1937C168.834 81.4553 169.261 80.785 169.159 80.0053C169.135 79.8113 169.063 79.6264 168.949 79.4681C168.036 78.2458 165.893 80.0148 165.031 78.9083C164.503 78.2298 165.124 77.1615 164.719 76.4031C164.184 75.4023 162.599 75.896 161.605 75.3479C160.5 74.738 160.566 73.0415 161.294 72.0097C162.181 70.7513 163.738 70.0798 165.274 69.983C166.811 69.8863 168.338 70.3017 169.773 70.8609C171.403 71.4962 173.019 72.3743 174.023 73.8078C175.243 75.5511 175.36 77.8948 174.75 79.9332C174.379 81.1732 173.112 82.688 172.177 83.6844Z" fill="#2F2E41"/>
<path d="M214.265 168.5H119.015C118.949 168.5 118.885 168.474 118.838 168.427C118.791 168.38 118.765 168.316 118.765 168.25C118.765 168.184 118.791 168.12 118.838 168.073C118.885 168.026 118.949 168 119.015 168H214.265C214.331 168 214.395 168.026 214.442 168.073C214.489 168.12 214.515 168.184 214.515 168.25C214.515 168.316 214.489 168.38 214.442 168.427C214.395 168.474 214.331 168.5 214.265 168.5Z" fill="#3F3D56"/>
</g>
<defs>
<clipPath id="clip0_331_1930">
<rect width="214.031" height="168.5" fill="white" transform="translate(0.484863)"/>
</clipPath>
</defs>
</svg>
