<svg width="231" height="210" viewBox="0 0 231 210" fill="none" xmlns="http://www.w3.org/2000/svg">
<g clip-path="url(#clip0_352_3614)">
<path d="M198.43 19.3016L5.50049 75.5133L10.6106 93.0524L203.541 36.8407L198.43 19.3016Z" fill="#3F3D56"/>
<path d="M28.5507 156.077L0.114417 58.4778C-0.0964016 57.7542 -0.0111314 56.9765 0.351457 56.3158C0.714045 55.6551 1.32425 55.1654 2.04785 54.9546L190.301 0.105515C191.024 -0.104596 191.802 -0.0190366 192.462 0.343421C193.123 0.70588 193.612 1.31562 193.824 2.0388L219.016 88.5045L218.237 88.7316L193.044 2.26596C192.893 1.74962 192.543 1.31434 192.071 1.05548C191.6 0.796622 191.044 0.735288 190.528 0.884927L2.27496 55.734C1.75811 55.8846 1.32225 56.2344 1.06326 56.7063C0.804264 57.1783 0.743357 57.7338 0.893935 58.2507L29.3303 155.85L28.5507 156.077Z" fill="#3F3D56"/>
<path d="M177.35 88.906C176.778 88.9054 176.223 88.7199 175.766 88.3772C175.309 88.0345 174.975 87.553 174.815 87.0049L170.046 70.6351C169.851 69.9632 169.93 69.2414 170.267 68.6281C170.603 68.0148 171.169 67.5601 171.841 67.3636L188.211 62.5941C188.883 62.3992 189.604 62.4788 190.218 62.8154C190.831 63.152 191.286 63.7181 191.482 64.3896L196.252 80.7594C196.447 81.4313 196.367 82.153 196.03 82.7663C195.694 83.3797 195.128 83.8344 194.456 84.0309L178.087 88.8004C177.847 88.8703 177.599 88.9059 177.35 88.906Z" fill="#8C034E"/>
<path d="M28.1113 58.7795C28.0622 58.6113 28.0039 58.446 27.9366 58.2842C27.4789 57.1734 26.6268 56.2708 25.5441 55.75C24.4614 55.2292 23.2243 55.1269 22.0707 55.4628C20.9172 55.7986 19.9284 56.5489 19.2944 57.5696C18.6604 58.5902 18.426 59.8091 18.6361 60.992C18.6657 61.1646 18.705 61.3354 18.7539 61.5035C19.0503 62.5154 19.6666 63.4041 20.5104 64.0364C21.3542 64.6687 22.3801 65.0107 23.4345 65.0111C23.8949 65.0121 24.353 64.9465 24.7946 64.8162C26.0339 64.4541 27.0791 63.6152 27.7009 62.4835C28.3226 61.3519 28.4702 60.0198 28.1113 58.7795ZM24.5672 64.0368C23.5336 64.3367 22.4232 64.2146 21.4796 63.6971C20.5359 63.1796 19.836 62.309 19.5333 61.2762C19.4858 61.108 19.4478 60.9372 19.4195 60.7647C19.2673 59.79 19.4752 58.7933 20.0045 57.9608C20.5338 57.1283 21.3482 56.5171 22.2954 56.2415C23.2426 55.9659 24.2578 56.0448 25.1511 56.4633C26.0444 56.8819 26.7546 57.6114 27.1491 58.5157C27.2226 58.6744 27.2837 58.8386 27.3318 59.0069C27.6314 60.0405 27.5085 61.1507 26.9902 62.0938C26.4718 63.0369 25.6004 63.7357 24.5672 64.0368Z" fill="#8C034E"/>
<path d="M16.1625 62.2584C15.9027 61.3662 15.9277 60.4152 16.2339 59.5378C16.5401 58.6605 17.1124 57.9005 17.8709 57.3637C17.1603 57.3291 16.4516 57.4647 15.804 57.7595C15.1563 58.0542 14.5885 58.4994 14.1478 59.058C13.7071 59.6166 13.4062 60.2724 13.2702 60.9708C13.1343 61.6692 13.1672 62.39 13.3663 63.0731C13.5653 63.7563 13.9247 64.3819 14.4145 64.8981C14.9043 65.4142 15.5103 65.8057 16.1821 66.0402C16.8539 66.2747 17.572 66.3452 18.2766 66.2459C18.9811 66.1467 19.6518 65.8805 20.2327 65.4695C19.3045 65.4242 18.4136 65.0905 17.684 64.5149C16.9545 63.9394 16.4226 63.1506 16.1625 62.2584Z" fill="#8C034E"/>
<path d="M142.361 82.3783C142.275 82.0676 142.128 81.777 141.929 81.5232C141.73 81.2693 141.484 81.0571 141.203 80.8987C140.922 80.7404 140.612 80.6389 140.292 80.6002C139.972 80.5616 139.648 80.5864 139.337 80.6732L112.385 88.212L109.482 89.0239H127.71L130.613 88.212L140.66 85.4027C141.287 85.2268 141.818 84.8094 142.137 84.2424C142.455 83.6753 142.536 83.0049 142.361 82.3783Z" fill="#CCCCCC"/>
<path d="M123.293 76.7474C123.118 76.1208 122.7 75.5896 122.133 75.2706C121.566 74.9517 120.895 74.871 120.269 75.0464L79.8267 86.3565C79.2616 86.5166 78.7723 86.8734 78.447 87.3624C78.1217 87.8515 77.9818 88.4406 78.0526 89.0237H88.5224L91.429 88.2118L121.592 79.7759C122.219 79.5993 122.75 79.1813 123.069 78.6135C123.388 78.0457 123.469 77.3745 123.293 76.7474Z" fill="#CCCCCC"/>
<path d="M227.408 88.2108H31.3276C30.5742 88.2117 29.8518 88.5113 29.3191 89.0441C28.7864 89.5768 28.4867 90.2991 28.4858 91.0526V207.158C28.4867 207.912 28.7863 208.634 29.3191 209.167C29.8518 209.699 30.5742 209.999 31.3276 210H227.408C228.162 209.999 228.884 209.699 229.417 209.167C229.949 208.634 230.249 207.912 230.25 207.158V91.0526C230.249 90.2992 229.949 89.5769 229.417 89.0441C228.884 88.5114 228.162 88.2117 227.408 88.2108ZM229.438 207.158C229.438 207.696 229.224 208.213 228.843 208.593C228.463 208.974 227.946 209.188 227.408 209.188H31.3276C30.7893 209.188 30.2731 208.974 29.8925 208.593C29.5119 208.213 29.298 207.696 29.2978 207.158V91.0526C29.298 90.5143 29.5119 89.9981 29.8925 89.6175C30.2732 89.2369 30.7893 89.023 31.3276 89.0227H227.408C227.946 89.023 228.463 89.2369 228.843 89.6175C229.224 89.9981 229.438 90.5143 229.438 91.0526V207.158Z" fill="#3F3D56"/>
<path d="M50.4067 104.045C49.4432 104.045 48.5013 103.759 47.7002 103.224C46.8991 102.688 46.2747 101.927 45.906 101.037C45.5373 100.147 45.4408 99.1676 45.6288 98.2226C45.8167 97.2776 46.2807 96.4095 46.962 95.7282C47.6433 95.0469 48.5113 94.583 49.4563 94.395C50.4013 94.207 51.3808 94.3035 52.271 94.6722C53.1612 95.0409 53.922 95.6653 54.4573 96.4665C54.9926 97.2676 55.2783 98.2094 55.2783 99.173C55.2768 100.465 54.7631 101.703 53.8498 102.616C52.9365 103.529 51.6983 104.043 50.4067 104.045ZM50.4067 95.1133C49.6038 95.1133 48.8189 95.3514 48.1513 95.7975C47.4837 96.2436 46.9634 96.8776 46.6561 97.6194C46.3488 98.3612 46.2685 99.1775 46.4251 99.965C46.5817 100.752 46.9684 101.476 47.5361 102.044C48.1039 102.611 48.8272 102.998 49.6147 103.155C50.4022 103.311 51.2185 103.231 51.9603 102.924C52.7021 102.616 53.3361 102.096 53.7822 101.428C54.2283 100.761 54.4664 99.9759 54.4664 99.173C54.4651 98.0966 54.037 97.0648 53.276 96.3037C52.5149 95.5426 51.483 95.1145 50.4067 95.1133Z" fill="#8C034E"/>
<path d="M42.8349 99.1729C42.8351 98.2436 43.125 97.3375 43.6645 96.5808C44.2039 95.8242 44.9659 95.2546 45.8443 94.9514C45.1717 94.7194 44.4534 94.6514 43.7491 94.7532C43.0449 94.855 42.3752 95.1236 41.7959 95.5366C41.2165 95.9496 40.7442 96.4951 40.4183 97.1276C40.0924 97.7601 39.9224 98.4613 39.9224 99.1729C39.9224 99.8844 40.0924 100.586 40.4183 101.218C40.7442 101.851 41.2165 102.396 41.7959 102.809C42.3752 103.222 43.0449 103.491 43.7491 103.593C44.4534 103.694 45.1717 103.626 45.8443 103.394C44.9659 103.091 44.2039 102.522 43.6645 101.765C43.125 101.008 42.8351 100.102 42.8349 99.1729Z" fill="#8C034E"/>
<path d="M70.1542 156.729C69.1855 156.728 68.2568 156.343 67.5718 155.658C66.8869 154.973 66.5016 154.044 66.5005 153.076V142.115C66.5005 141.146 66.8854 140.216 67.5706 139.531C68.2558 138.846 69.1851 138.461 70.1542 138.461C71.1232 138.461 72.0525 138.846 72.7377 139.531C73.4229 140.216 73.8078 141.146 73.8078 142.115V153.076C73.8067 154.044 73.4214 154.973 72.7365 155.658C72.0515 156.343 71.1228 156.728 70.1542 156.729Z" fill="#8C034E"/>
<path d="M79.8973 156.729C78.9286 156.728 78 156.343 77.315 155.658C76.63 154.973 76.2448 154.044 76.2437 153.076V142.115C76.2437 141.146 76.6286 140.216 77.3138 139.531C77.999 138.846 78.9283 138.461 79.8973 138.461C80.8663 138.461 81.7956 138.846 82.4808 139.531C83.166 140.216 83.551 141.146 83.551 142.115V153.076C83.5499 154.044 83.1646 154.973 82.4796 155.658C81.7947 156.343 80.866 156.728 79.8973 156.729Z" fill="#8C034E"/>
<path d="M89.6405 156.729C88.6718 156.728 87.7432 156.343 87.0582 155.658C86.3732 154.973 85.9879 154.044 85.9868 153.076V142.115C85.9868 141.146 86.3718 140.216 87.057 139.531C87.7422 138.846 88.6715 138.461 89.6405 138.461C90.6095 138.461 91.5388 138.846 92.224 139.531C92.9092 140.216 93.2942 141.146 93.2942 142.115V153.076C93.2931 154.044 92.9078 154.973 92.2228 155.658C91.5379 156.343 90.6092 156.728 89.6405 156.729Z" fill="#8C034E"/>
<path d="M104.661 156.729C103.693 156.728 102.764 156.343 102.079 155.658C101.394 154.973 101.009 154.044 101.008 153.076V142.115C101.008 141.146 101.393 140.216 102.078 139.531C102.763 138.846 103.692 138.461 104.661 138.461C105.63 138.461 106.56 138.846 107.245 139.531C107.93 140.216 108.315 141.146 108.315 142.115V153.076C108.314 154.044 107.929 154.973 107.244 155.658C106.559 156.343 105.63 156.728 104.661 156.729Z" fill="#8C034E"/>
<path d="M114.404 156.729C113.435 156.728 112.507 156.343 111.822 155.658C111.137 154.973 110.752 154.044 110.75 153.076V142.115C110.75 141.146 111.135 140.216 111.821 139.531C112.506 138.846 113.435 138.461 114.404 138.461C115.373 138.461 116.302 138.846 116.988 139.531C117.673 140.216 118.058 141.146 118.058 142.115V153.076C118.057 154.044 117.671 154.973 116.986 155.658C116.302 156.343 115.373 156.728 114.404 156.729Z" fill="#8C034E"/>
<path d="M124.147 156.729C123.179 156.728 122.25 156.343 121.565 155.658C120.88 154.973 120.495 154.044 120.494 153.076V142.115C120.494 141.146 120.879 140.216 121.564 139.531C122.249 138.846 123.178 138.461 124.147 138.461C125.116 138.461 126.046 138.846 126.731 139.531C127.416 140.216 127.801 141.146 127.801 142.115V153.076C127.8 154.044 127.415 154.973 126.73 155.658C126.045 156.343 125.116 156.728 124.147 156.729Z" fill="#8C034E"/>
<path d="M139.168 156.729C138.199 156.728 137.27 156.343 136.586 155.658C135.901 154.973 135.515 154.044 135.514 153.076V142.115C135.514 141.146 135.899 140.216 136.584 139.531C137.269 138.846 138.199 138.461 139.168 138.461C140.137 138.461 141.066 138.846 141.751 139.531C142.437 140.216 142.822 141.146 142.822 142.115V153.076C142.82 154.044 142.435 154.973 141.75 155.658C141.065 156.343 140.137 156.728 139.168 156.729Z" fill="#8C034E"/>
<path d="M148.911 156.729C147.942 156.728 147.014 156.343 146.329 155.658C145.644 154.973 145.258 154.044 145.257 153.076V142.115C145.257 141.146 145.642 140.216 146.327 139.531C147.013 138.846 147.942 138.461 148.911 138.461C149.88 138.461 150.809 138.846 151.495 139.531C152.18 140.216 152.565 141.146 152.565 142.115V153.076C152.564 154.044 152.178 154.973 151.493 155.658C150.808 156.343 149.88 156.728 148.911 156.729Z" fill="#8C034E"/>
<path d="M158.654 156.729C157.685 156.728 156.757 156.343 156.072 155.658C155.387 154.973 155.002 154.044 155 153.076V142.115C155 141.146 155.385 140.216 156.071 139.531C156.756 138.846 157.685 138.461 158.654 138.461C159.623 138.461 160.552 138.846 161.238 139.531C161.923 140.216 162.308 141.146 162.308 142.115V153.076C162.307 154.044 161.921 154.973 161.236 155.658C160.552 156.343 159.623 156.728 158.654 156.729Z" fill="#8C034E"/>
<path d="M173.675 156.729C172.706 156.728 171.778 156.343 171.093 155.658C170.408 154.973 170.023 154.044 170.021 153.076V142.115C170.021 141.146 170.406 140.216 171.092 139.531C171.777 138.846 172.706 138.461 173.675 138.461C174.644 138.461 175.573 138.846 176.259 139.531C176.944 140.216 177.329 141.146 177.329 142.115V153.076C177.328 154.044 176.942 154.973 176.257 155.658C175.573 156.343 174.644 156.728 173.675 156.729Z" fill="#8C034E"/>
<path d="M183.418 156.729C182.449 156.728 181.521 156.343 180.836 155.658C180.151 154.973 179.766 154.044 179.764 153.076V142.115C179.764 141.146 180.149 140.216 180.835 139.531C181.52 138.846 182.449 138.461 183.418 138.461C184.387 138.461 185.316 138.846 186.002 139.531C186.687 140.216 187.072 141.146 187.072 142.115V153.076C187.071 154.044 186.685 154.973 186 155.658C185.315 156.343 184.387 156.728 183.418 156.729Z" fill="#8C034E"/>
<path d="M193.161 156.729C192.192 156.728 191.264 156.343 190.579 155.658C189.894 154.973 189.508 154.044 189.507 153.076V142.115C189.507 141.146 189.892 140.216 190.577 139.531C191.263 138.846 192.192 138.461 193.161 138.461C194.13 138.461 195.059 138.846 195.745 139.531C196.43 140.216 196.815 141.146 196.815 142.115V153.076C196.814 154.044 196.428 154.973 195.743 155.658C195.058 156.343 194.13 156.728 193.161 156.729Z" fill="#8C034E"/>
<path d="M94.9254 197.394H42.3774C41.7263 197.394 41.1018 197.135 40.6414 196.675C40.181 196.214 39.9224 195.59 39.9224 194.939C39.9224 194.288 40.181 193.663 40.6414 193.203C41.1018 192.742 41.7263 192.484 42.3774 192.484H94.9254C95.5765 192.484 96.201 192.742 96.6614 193.203C97.1218 193.663 97.3804 194.288 97.3804 194.939C97.3804 195.59 97.1218 196.214 96.6614 196.675C96.201 197.135 95.5765 197.394 94.9254 197.394Z" fill="#E6E6E6"/>
<path d="M78.0776 186.839H59.2245C58.5734 186.839 57.949 186.58 57.4886 186.12C57.0282 185.659 56.7695 185.035 56.7695 184.384C56.7695 183.732 57.0282 183.108 57.4886 182.648C57.949 182.187 58.5734 181.929 59.2245 181.929H78.0776C78.7287 181.929 79.3532 182.187 79.8136 182.648C80.274 183.108 80.5326 183.732 80.5326 184.384C80.5326 185.035 80.274 185.659 79.8136 186.12C79.3532 186.58 78.7287 186.839 78.0776 186.839Z" fill="#E6E6E6"/>
<path d="M229.292 112.479H29.1519V113.291H229.292V112.479Z" fill="#3F3D56"/>
</g>
<defs>
<clipPath id="clip0_352_3614">
<rect width="230.251" height="210.009" fill="white" transform="translate(0 -0.00891113)"/>
</clipPath>
</defs>
</svg>
