<svg width="18" height="18" viewBox="0 0 18 18" fill="none" xmlns="http://www.w3.org/2000/svg">
<path d="M5.44897 11.4985C5.55927 11.8978 5.97235 12.1321 6.37161 12.0217C6.77086 11.9114 7.00511 11.4984 6.89481 11.0991L5.44897 11.4985ZM4.55769 5.45594L5.28061 5.25622V5.25622L4.55769 5.45594ZM3.52777 4.44009L3.32726 5.16279L3.52777 4.44009ZM2.45051 3.36287C2.05138 3.25213 1.63804 3.48592 1.5273 3.88506C1.41656 4.2842 1.65035 4.69753 2.04949 4.80827L2.45051 3.36287ZM15.1886 11.9757C15.5895 11.8715 15.8301 11.462 15.7259 11.0611C15.6217 10.6602 15.2123 10.4197 14.8114 10.5239L15.1886 11.9757ZM7.4676 13.2192C7.67066 13.9542 7.22703 14.7402 6.42075 14.9497L6.79804 16.4015C8.37748 15.991 9.34963 14.3986 8.91344 12.8197L7.4676 13.2192ZM6.42075 14.9497C5.60665 15.1613 4.79941 14.6868 4.59374 13.9423L3.1479 14.3418C3.58147 15.9112 5.22644 16.8099 6.79804 16.4015L6.42075 14.9497ZM4.59374 13.9423C4.39067 13.2073 4.83431 12.4214 5.64058 12.2118L5.26329 10.76C3.68386 11.1705 2.71171 12.7629 3.1479 14.3418L4.59374 13.9423ZM5.64058 12.2118C6.45469 12.0002 7.26193 12.4747 7.4676 13.2192L8.91344 12.8197C8.47987 11.2503 6.83489 10.3516 5.26329 10.76L5.64058 12.2118ZM6.89481 11.0991L5.28061 5.25622L3.83477 5.65566L5.44897 11.4985L6.89481 11.0991ZM3.72828 3.71739L2.45051 3.36287L2.04949 4.80827L3.32726 5.16279L3.72828 3.71739ZM5.28061 5.25622C5.07266 4.5035 4.47736 3.92522 3.72828 3.71739L3.32726 5.16279C3.58505 5.23431 3.77167 5.42727 3.83477 5.65566L5.28061 5.25622ZM8.37917 13.7453L15.1886 11.9757L14.8114 10.5239L8.00188 12.2936L8.37917 13.7453Z" fill="#404040"/>
<path d="M7.1743 6.54787C6.81054 5.23119 6.62867 4.57285 6.9374 4.05421C7.24613 3.53557 7.92491 3.35917 9.28246 3.00637L10.7224 2.63216C12.0799 2.27936 12.7587 2.10296 13.2934 2.4024C13.8282 2.70183 14.01 3.36017 14.3738 4.67685L14.7596 6.0734C15.1234 7.39008 15.3053 8.04842 14.9965 8.56706C14.6878 9.0857 14.009 9.2621 12.6515 9.6149L11.2116 9.98911C9.85401 10.3419 9.17523 10.5183 8.64049 10.2189C8.10575 9.91943 7.92387 9.2611 7.56012 7.94442L7.1743 6.54787Z" stroke="#404040" stroke-width="1.5"/>
</svg>
