<svg width="18" height="18" viewBox="0 0 18 18" fill="none" xmlns="http://www.w3.org/2000/svg">
<path d="M7.17332 6.54787L7.55914 7.94442C7.9229 9.2611 8.10478 9.91943 8.63952 10.2189C9.17426 10.5183 9.85303 10.3419 11.2106 9.98911L12.6505 9.6149C14.008 9.2621 14.6868 9.0857 14.9955 8.56706C15.3043 8.04842 15.1224 7.39008 14.7587 6.07341L14.3728 4.67685C14.0091 3.36017 13.8272 2.70183 13.2925 2.4024C12.7577 2.10296 12.0789 2.27936 10.7214 2.63216L9.28148 3.00637C7.92393 3.35917 7.24516 3.53557 6.93642 4.05421C6.62769 4.57285 6.80957 5.23119 7.17332 6.54787Z" fill="url(#paint0_linear_236_748)"/>
<path d="M1.70812 3.93521C1.79117 3.63586 2.10117 3.46051 2.40053 3.54357L3.6783 3.89808C4.36597 4.08887 4.91018 4.61899 5.10002 5.30617L6.71329 11.1457L6.83201 11.5556C7.30687 11.7329 7.71472 12.065 7.97357 12.5061L8.20606 12.4343L14.8587 10.7054C15.1593 10.6273 15.4664 10.8077 15.5446 11.1083C15.6227 11.409 15.4423 11.7161 15.1416 11.7942L8.51363 13.5167L8.26711 13.5928C8.26205 14.5461 7.60443 15.4166 6.60927 15.6752C5.41642 15.9852 4.19032 15.2986 3.87069 14.1417C3.55107 12.9848 4.25896 11.7956 5.45181 11.4856C5.51092 11.4702 5.57012 11.4573 5.62928 11.4468L4.01564 5.60575C3.93444 5.31182 3.69673 5.07069 3.37753 4.98213L2.09976 4.62762C1.80041 4.54456 1.62506 4.23456 1.70812 3.93521Z" fill="url(#paint1_linear_236_748)"/>
<defs>
<linearGradient id="paint0_linear_236_748" x1="20.7984" y1="-2.92249" x2="-3.1507" y2="3.99643" gradientUnits="userSpaceOnUse">
<stop stop-color="#F82398"/>
<stop offset="0.448044" stop-color="#C81577"/>
<stop offset="1" stop-color="#69023A"/>
</linearGradient>
<linearGradient id="paint1_linear_236_748" x1="20.7984" y1="-2.92249" x2="-3.1507" y2="3.99643" gradientUnits="userSpaceOnUse">
<stop stop-color="#F82398"/>
<stop offset="0.448044" stop-color="#C81577"/>
<stop offset="1" stop-color="#69023A"/>
</linearGradient>
</defs>
</svg>
