<svg width="314" height="202" viewBox="0 0 314 202" fill="none" xmlns="http://www.w3.org/2000/svg">
<g opacity="0.5" clip-path="url(#clip0_351_1929)">
<path d="M172.547 39.1757H167.264C166.994 39.1754 166.736 39.0682 166.545 38.8778C166.355 38.6873 166.248 38.429 166.248 38.1596V32.8762C166.248 32.6068 166.355 32.3485 166.545 32.158C166.736 31.9676 166.994 31.8604 167.264 31.8601H172.547C172.816 31.8604 173.075 31.9676 173.265 32.158C173.456 32.3485 173.563 32.6068 173.563 32.8762V38.1596C173.563 38.429 173.456 38.6873 173.265 38.8778C173.075 39.0682 172.816 39.1754 172.547 39.1757ZM167.264 32.2665C167.102 32.2667 166.947 32.331 166.833 32.4453C166.718 32.5596 166.654 32.7145 166.654 32.8762V38.1596C166.654 38.3213 166.718 38.4762 166.833 38.5905C166.947 38.7048 167.102 38.7691 167.264 38.7693H172.547C172.709 38.7691 172.864 38.7048 172.978 38.5905C173.092 38.4762 173.157 38.3213 173.157 38.1596V32.8762C173.157 32.7145 173.092 32.5596 172.978 32.4453C172.864 32.331 172.709 32.2667 172.547 32.2665H167.264Z" fill="#E6E6E6"/>
<path d="M110.974 7.67789H105.69C105.421 7.67758 105.163 7.57044 104.972 7.37996C104.782 7.18948 104.675 6.93122 104.674 6.66184V1.37836C104.675 1.10898 104.782 0.85072 104.972 0.66024C105.163 0.46976 105.421 0.362613 105.69 0.362305H110.974C111.243 0.362613 111.501 0.46976 111.692 0.66024C111.882 0.85072 111.99 1.10898 111.99 1.37836V6.66184C111.99 6.93122 111.882 7.18948 111.692 7.37996C111.501 7.57044 111.243 7.67758 110.974 7.67789ZM105.69 0.768726C105.529 0.768903 105.374 0.833188 105.259 0.947478C105.145 1.06177 105.081 1.21673 105.081 1.37836V6.66184C105.081 6.82347 105.145 6.97843 105.259 7.09272C105.374 7.20701 105.529 7.27129 105.69 7.27147H110.974C111.135 7.27129 111.29 7.20701 111.405 7.09272C111.519 6.97843 111.583 6.82347 111.583 6.66184V1.37836C111.583 1.21673 111.519 1.06177 111.405 0.947478C111.29 0.833188 111.135 0.768903 110.974 0.768726H105.69Z" fill="#E6E6E6"/>
<path d="M169.296 36.5338H164.012C163.743 36.5335 163.485 36.4264 163.294 36.2359C163.104 36.0454 162.996 35.7872 162.996 35.5178V30.2343C162.996 29.9649 163.104 29.7067 163.294 29.5162C163.485 29.3257 163.743 29.2186 164.012 29.2183H169.296C169.565 29.2186 169.823 29.3257 170.014 29.5162C170.204 29.7067 170.311 29.9649 170.312 30.2343V35.5178C170.311 35.7872 170.204 36.0454 170.014 36.2359C169.823 36.4264 169.565 36.5335 169.296 36.5338ZM164.012 29.6247C163.851 29.6249 163.696 29.6891 163.581 29.8034C163.467 29.9177 163.403 30.0727 163.403 30.2343V35.5178C163.403 35.6794 163.467 35.8344 163.581 35.9487C163.696 36.063 163.851 36.1273 164.012 36.1274H169.296C169.457 36.1273 169.612 36.063 169.727 35.9487C169.841 35.8344 169.905 35.6794 169.905 35.5178V30.2343C169.905 30.0727 169.841 29.9177 169.727 29.8034C169.612 29.6891 169.457 29.6249 169.296 29.6247H164.012Z" fill="#E6E6E6"/>
<path d="M77.4446 80.6305H72.1611C71.8917 80.6302 71.6334 80.5231 71.443 80.3326C71.2525 80.1421 71.1453 79.8839 71.145 79.6145V74.331C71.1453 74.0616 71.2525 73.8034 71.443 73.6129C71.6334 73.4224 71.8917 73.3152 72.1611 73.3149H77.4446C77.7139 73.3152 77.9722 73.4224 78.1627 73.6129C78.3532 73.8034 78.4603 74.0616 78.4606 74.331V79.6145C78.4603 79.8839 78.3532 80.1421 78.1627 80.3326C77.9722 80.5231 77.7139 80.6302 77.4446 80.6305ZM72.1611 73.7214C71.9994 73.7215 71.8445 73.7858 71.7302 73.9001C71.6159 74.0144 71.5516 74.1694 71.5514 74.331V79.6145C71.5516 79.7761 71.6159 79.9311 71.7302 80.0454C71.8445 80.1596 71.9994 80.2239 72.1611 80.2241H77.4446C77.6062 80.2239 77.7611 80.1596 77.8754 80.0454C77.9897 79.9311 78.054 79.7761 78.0542 79.6145V74.331C78.054 74.1694 77.9897 74.0144 77.8754 73.9001C77.7611 73.7858 77.6062 73.7215 77.4446 73.7214H72.1611Z" fill="#E6E6E6"/>
<path d="M74.1931 77.9887H68.9096C68.6402 77.9884 68.382 77.8812 68.1915 77.6907C68.001 77.5003 67.8939 77.242 67.8936 76.9726V71.6891C67.8939 71.4198 68.001 71.1615 68.1915 70.971C68.382 70.7806 68.6402 70.6734 68.9096 70.6731H74.1931C74.4625 70.6734 74.7207 70.7806 74.9112 70.971C75.1017 71.1615 75.2088 71.4198 75.2091 71.6891V76.9726C75.2088 77.242 75.1017 77.5003 74.9112 77.6907C74.7207 77.8812 74.4625 77.9884 74.1931 77.9887ZM68.9096 71.0795C68.748 71.0797 68.593 71.144 68.4787 71.2583C68.3644 71.3726 68.3002 71.5275 68.3 71.6891V76.9726C68.3002 77.1343 68.3644 77.2892 68.4787 77.4035C68.593 77.5178 68.748 77.5821 68.9096 77.5823H74.1931C74.3547 77.5821 74.5097 77.5178 74.624 77.4035C74.7383 77.2892 74.8025 77.1343 74.8027 76.9726V71.6891C74.8025 71.5275 74.7383 71.3726 74.624 71.2583C74.5097 71.144 74.3547 71.0797 74.1931 71.0795H68.9096Z" fill="#E6E6E6"/>
<path d="M86.6757 17.8464H135.571C137.931 17.8464 140.22 18.6492 142.063 20.1227C143.906 21.5963 145.192 23.6529 145.711 25.9546L170.417 135.54C170.687 136.735 170.691 137.975 170.431 139.172C170.171 140.369 169.652 141.495 168.91 142.471C168.169 143.446 167.223 144.248 166.139 144.819C165.055 145.39 163.859 145.717 162.635 145.778L112.37 148.254C109.679 148.387 107.031 147.536 104.921 145.86C102.811 144.183 101.383 141.797 100.903 139.145L86.8883 61.6672L85.8457 61.9651L83.1641 47.2801L84.2374 47.0118L80.3253 25.385C80.1578 24.4587 80.1966 23.5068 80.4391 22.5972C80.6817 21.6876 81.1218 20.8428 81.7283 20.1228C82.3348 19.4029 83.0926 18.8256 83.9478 18.4321C84.803 18.0386 85.7344 17.8386 86.6757 17.8464Z" fill="#3F3D56"/>
<path d="M129.135 20.2085H134.842C136.481 20.2085 138.071 20.7691 139.348 21.7972C140.624 22.8253 141.511 24.2591 141.86 25.8605L165.575 134.551C165.711 135.177 165.711 135.825 165.574 136.451C165.437 137.076 165.167 137.665 164.782 138.177C164.397 138.689 163.906 139.111 163.342 139.416C162.779 139.72 162.156 139.9 161.517 139.942L111.415 143.225C110.001 143.318 108.603 142.887 107.487 142.014C106.371 141.142 105.616 139.889 105.364 138.495L85.1288 26.1525C84.9978 25.4253 85.028 24.6783 85.2173 23.9641C85.4065 23.25 85.7502 22.586 86.2241 22.0192C86.698 21.4523 87.2905 20.9964 87.9598 20.6835C88.6291 20.3707 89.3589 20.2085 90.0978 20.2085H95.5123C96.0364 20.2085 96.5458 20.3813 96.9617 20.7C97.3777 21.0188 97.677 21.4658 97.8132 21.9719C97.9335 22.4186 98.1977 22.8132 98.5649 23.0946C98.9321 23.3761 99.3818 23.5286 99.8445 23.5286H125.549C126.455 23.5286 127.328 23.1866 127.992 22.5711C128.657 21.9555 129.065 21.1118 129.135 20.2085Z" fill="white"/>
<path d="M89.0273 38.689H143.381L149.172 64.78L94.1076 65.7961L89.0273 38.689Z" fill="#8E93A6"/>
<path d="M140.643 88.0994H153.439L153.846 90.5491H141.049L140.643 88.0994Z" fill="#8E93A6"/>
<path d="M151.055 75.6025L96.7842 76.7517L96.7896 77.0071L151.06 75.8578L151.055 75.6025Z" fill="#2F2E41"/>
<path d="M152.714 83.1364L97.4219 84.4133L97.4278 84.6687L152.72 83.3918L152.714 83.1364Z" fill="#2F2E41"/>
<path d="M145.926 114.314H158.723L159.129 116.763H146.333L145.926 114.314Z" fill="#8E93A6"/>
<path d="M156.338 101.816L102.067 102.966L102.073 103.221L156.343 102.072L156.338 101.816Z" fill="#2F2E41"/>
<path d="M157.998 109.35L102.706 110.627L102.711 110.883L158.003 109.606L157.998 109.35Z" fill="#2F2E41"/>
<path d="M192.982 148.951L190.56 148.951L189.409 139.612L192.982 139.613L192.982 148.951Z" fill="#A0616A"/>
<path d="M193.599 151.298L185.792 151.298V151.199C185.792 150.393 186.112 149.621 186.682 149.051C187.252 148.481 188.025 148.161 188.831 148.161L193.599 148.161L193.599 151.298Z" fill="#2F2E41"/>
<path d="M223.06 147.366L220.704 147.921L217.441 139.095L220.92 138.276L223.06 147.366Z" fill="#A0616A"/>
<path d="M224.199 149.509L216.6 151.298L216.577 151.202C216.393 150.418 216.527 149.592 216.951 148.907C217.375 148.221 218.054 147.733 218.839 147.548L223.48 146.455L224.199 149.509Z" fill="#2F2E41"/>
<path d="M192.487 109.561C192.492 109.074 192.636 97.5885 195.784 93.2457L195.831 93.1816L206.802 94.6953L206.557 97.1059C207.04 97.5753 210.836 101.542 211.932 110.935L223.577 142.212L218.163 142.704L202.137 108.561L193.656 145.675H188.289L192.487 109.561Z" fill="#2F2E41"/>
<path d="M194.499 93.6696L195.571 88.0389C195.361 87.7687 194.431 86.4708 194.638 84.9494C194.773 83.9568 195.365 83.0865 196.399 82.3618L199.179 75.8753L199.217 75.8533C199.404 75.743 203.83 73.1835 206.243 75.5983C206.303 75.6451 212.245 80.3612 209.859 86.7232L206.914 95.5599L194.499 93.6696Z" fill="#CCCCCC"/>
<path d="M190.767 101.287C191.057 101.254 191.335 101.158 191.583 101.006C191.831 100.854 192.043 100.649 192.203 100.406C192.364 100.163 192.469 99.8876 192.511 99.5997C192.554 99.3117 192.532 99.0179 192.449 98.739L198.19 94.6029L194.753 93.2957L189.829 97.4239C189.369 97.5949 188.989 97.9285 188.759 98.3614C188.529 98.7942 188.466 99.2964 188.582 99.7726C188.698 100.249 188.984 100.666 189.387 100.945C189.79 101.224 190.281 101.346 190.767 101.287Z" fill="#A0616A"/>
<path d="M191.822 94.596L200.587 87.6907L197.981 78.7884C197.858 78.3669 197.824 77.9246 197.879 77.489C197.935 77.0535 198.079 76.6341 198.304 76.2569C198.512 75.9013 198.792 75.593 199.126 75.3519C199.46 75.1108 199.841 74.9421 200.244 74.8566C201.744 74.5391 203.106 75.3793 204.291 77.3541L204.3 77.3719C204.496 77.8511 209.062 89.138 205.576 91.5517C202.166 93.9127 194.257 97.3498 194.178 97.3844L194.085 97.4244L191.822 94.596Z" fill="#CCCCCC"/>
<path d="M203.471 73.2509C206.403 73.2509 208.78 70.8738 208.78 67.9415C208.78 65.0092 206.403 62.6321 203.471 62.6321C200.538 62.6321 198.161 65.0092 198.161 67.9415C198.161 70.8738 200.538 73.2509 203.471 73.2509Z" fill="#A0616A"/>
<path d="M211.795 66.046C214.389 66.046 216.492 63.9431 216.492 61.3489C216.492 58.7548 214.389 56.6519 211.795 56.6519C209.201 56.6519 207.098 58.7548 207.098 61.3489C207.098 63.9431 209.201 66.046 211.795 66.046Z" fill="#2F2E41"/>
<path d="M215.846 65.2383C215.238 65.6777 214.534 65.9651 213.792 66.0765C213.05 66.1879 212.293 66.12 211.583 65.8785C210.872 65.6371 210.23 65.229 209.71 64.6885C209.19 64.148 208.807 63.4909 208.593 62.7719C208.674 63.4162 208.888 64.0367 209.22 64.5942C209.553 65.1517 209.998 65.6341 210.527 66.011C211.056 66.3879 211.657 66.651 212.293 66.7839C212.928 66.9167 213.584 66.9163 214.22 66.7827C214.855 66.6491 215.456 66.3853 215.984 66.0077C216.513 65.6302 216.957 65.1473 217.289 64.5894C217.622 64.0315 217.834 63.4108 217.915 62.7664C217.995 62.122 217.941 61.4681 217.756 60.8457C217.861 61.6818 217.739 62.5309 217.403 63.3037C217.067 64.0766 216.529 64.7448 215.846 65.2383Z" fill="#2F2E41"/>
<path d="M197.31 65.2434C198.13 63.7754 198.443 63.1621 199.501 62.2694C200.436 61.48 201.586 61.2481 202.513 61.9962C203.61 61.522 204.831 61.4145 205.995 61.6896C207.158 61.9647 208.202 62.6077 208.97 63.523C209.739 64.4384 210.192 65.5774 210.262 66.7707C210.332 67.964 210.015 69.148 209.358 70.1469C208.702 71.1458 207.741 71.9063 206.617 72.3153C205.494 72.7244 204.269 72.7602 203.124 72.4174C201.979 72.0747 200.974 71.3717 200.261 70.4129C199.547 69.4541 199.161 68.2906 199.161 67.0952C199.162 66.8853 199.175 66.6756 199.199 66.4671C198.393 66.3538 198.116 65.3566 197.31 65.2434Z" fill="#2F2E41"/>
<path d="M245.9 151.551H168.477C168.423 151.551 168.372 151.53 168.333 151.492C168.295 151.454 168.274 151.402 168.274 151.348C168.274 151.294 168.295 151.242 168.333 151.204C168.372 151.166 168.423 151.145 168.477 151.145H245.9C245.954 151.145 246.006 151.166 246.044 151.204C246.082 151.242 246.104 151.294 246.104 151.348C246.104 151.402 246.082 151.454 246.044 151.492C246.006 151.53 245.954 151.551 245.9 151.551Z" fill="#3F3D56"/>
</g>
<path d="M29.9446 164.724L26.4586 174.552H23.4626L19.9766 164.724H22.5246L24.9606 172.144L27.4106 164.724H29.9446ZM34.5011 174.664C33.7358 174.664 33.0451 174.5 32.4291 174.174C31.8225 173.847 31.3418 173.38 30.9871 172.774C30.6418 172.167 30.4691 171.458 30.4691 170.646C30.4691 169.843 30.6465 169.138 31.0011 168.532C31.3558 167.916 31.8411 167.444 32.4571 167.118C33.0731 166.791 33.7638 166.628 34.5291 166.628C35.2945 166.628 35.9851 166.791 36.6011 167.118C37.2171 167.444 37.7025 167.916 38.0571 168.532C38.4118 169.138 38.5891 169.843 38.5891 170.646C38.5891 171.448 38.4071 172.158 38.0431 172.774C37.6885 173.38 37.1985 173.847 36.5731 174.174C35.9571 174.5 35.2665 174.664 34.5011 174.664ZM34.5011 172.592C34.9585 172.592 35.3458 172.424 35.6631 172.088C35.9898 171.752 36.1531 171.271 36.1531 170.646C36.1531 170.02 35.9945 169.54 35.6771 169.204C35.3691 168.868 34.9865 168.7 34.5291 168.7C34.0625 168.7 33.6751 168.868 33.3671 169.204C33.0591 169.53 32.9051 170.011 32.9051 170.646C32.9051 171.271 33.0545 171.752 33.3531 172.088C33.6611 172.424 34.0438 172.592 34.5011 172.592ZM47.5732 166.74V174.552H45.1792V173.488C44.9365 173.833 44.6052 174.113 44.1852 174.328C43.7745 174.533 43.3172 174.636 42.8132 174.636C42.2159 174.636 41.6885 174.505 41.2312 174.244C40.7739 173.973 40.4192 173.586 40.1672 173.082C39.9152 172.578 39.7892 171.985 39.7892 171.304V166.74H42.1692V170.982C42.1692 171.504 42.3045 171.91 42.5752 172.2C42.8459 172.489 43.2099 172.634 43.6672 172.634C44.1339 172.634 44.5025 172.489 44.7732 172.2C45.0439 171.91 45.1792 171.504 45.1792 170.982V166.74H47.5732ZM52.4708 174.664C51.7895 174.664 51.1828 174.547 50.6508 174.314C50.1188 174.08 49.6988 173.763 49.3908 173.362C49.0828 172.951 48.9101 172.494 48.8728 171.99H51.2388C51.2668 172.26 51.3928 172.48 51.6168 172.648C51.8408 172.816 52.1161 172.9 52.4428 172.9C52.7415 172.9 52.9701 172.844 53.1288 172.732C53.2968 172.61 53.3808 172.456 53.3808 172.27C53.3808 172.046 53.2641 171.882 53.0308 171.78C52.7975 171.668 52.4195 171.546 51.8968 171.416C51.3368 171.285 50.8701 171.15 50.4968 171.01C50.1235 170.86 49.8015 170.632 49.5308 170.324C49.2601 170.006 49.1248 169.582 49.1248 169.05C49.1248 168.602 49.2461 168.196 49.4888 167.832C49.7408 167.458 50.1048 167.164 50.5808 166.95C51.0661 166.735 51.6401 166.628 52.3028 166.628C53.2828 166.628 54.0528 166.87 54.6128 167.356C55.1821 167.841 55.5088 168.485 55.5928 169.288H53.3808C53.3435 169.017 53.2221 168.802 53.0168 168.644C52.8208 168.485 52.5595 168.406 52.2328 168.406C51.9528 168.406 51.7381 168.462 51.5888 168.574C51.4395 168.676 51.3648 168.821 51.3648 169.008C51.3648 169.232 51.4815 169.4 51.7148 169.512C51.9575 169.624 52.3308 169.736 52.8348 169.848C53.4135 169.997 53.8848 170.146 54.2488 170.296C54.6128 170.436 54.9301 170.669 55.2008 170.996C55.4808 171.313 55.6255 171.742 55.6348 172.284C55.6348 172.741 55.5041 173.152 55.2428 173.516C54.9908 173.87 54.6221 174.15 54.1368 174.356C53.6608 174.561 53.1055 174.664 52.4708 174.664ZM64.8262 166.656C65.7409 166.656 66.4689 166.954 67.0102 167.552C67.5609 168.14 67.8362 168.952 67.8362 169.988V174.552H65.4562V170.31C65.4562 169.787 65.3209 169.381 65.0502 169.092C64.7796 168.802 64.4156 168.658 63.9582 168.658C63.5009 168.658 63.1369 168.802 62.8662 169.092C62.5956 169.381 62.4602 169.787 62.4602 170.31V174.552H60.0662V166.74H62.4602V167.776C62.7029 167.43 63.0296 167.16 63.4402 166.964C63.8509 166.758 64.3129 166.656 64.8262 166.656ZM70.0458 164.724H72.4958L70.9278 168.476H69.3178L70.0458 164.724ZM73.4262 170.632C73.4262 169.829 73.5755 169.124 73.8742 168.518C74.1822 167.911 74.5975 167.444 75.1202 167.118C75.6428 166.791 76.2262 166.628 76.8702 166.628C77.4208 166.628 77.9015 166.74 78.3122 166.964C78.7322 167.188 79.0542 167.482 79.2782 167.846V166.74H81.6722V174.552H79.2782V173.446C79.0448 173.81 78.7182 174.104 78.2982 174.328C77.8875 174.552 77.4068 174.664 76.8562 174.664C76.2215 174.664 75.6428 174.5 75.1202 174.174C74.5975 173.838 74.1822 173.366 73.8742 172.76C73.5755 172.144 73.4262 171.434 73.4262 170.632ZM79.2782 170.646C79.2782 170.048 79.1102 169.577 78.7742 169.232C78.4475 168.886 78.0462 168.714 77.5702 168.714C77.0942 168.714 76.6882 168.886 76.3522 169.232C76.0255 169.568 75.8622 170.034 75.8622 170.632C75.8622 171.229 76.0255 171.705 76.3522 172.06C76.6882 172.405 77.0942 172.578 77.5702 172.578C78.0462 172.578 78.4475 172.405 78.7742 172.06C79.1102 171.714 79.2782 171.243 79.2782 170.646ZM86.9181 172.312L88.6121 166.74H91.1601L88.3881 174.552H85.4341L82.6621 166.74H85.2241L86.9181 172.312ZM99.5318 170.52C99.5318 170.744 99.5178 170.977 99.4898 171.22H94.0718C94.1091 171.705 94.2631 172.078 94.5338 172.34C94.8138 172.592 95.1545 172.718 95.5558 172.718C96.1531 172.718 96.5685 172.466 96.8018 171.962H99.3498C99.2191 172.475 98.9811 172.937 98.6358 173.348C98.2998 173.758 97.8751 174.08 97.3618 174.314C96.8485 174.547 96.2745 174.664 95.6398 174.664C94.8745 174.664 94.1931 174.5 93.5958 174.174C92.9985 173.847 92.5318 173.38 92.1958 172.774C91.8598 172.167 91.6918 171.458 91.6918 170.646C91.6918 169.834 91.8551 169.124 92.1818 168.518C92.5178 167.911 92.9845 167.444 93.5818 167.118C94.1791 166.791 94.8651 166.628 95.6398 166.628C96.3958 166.628 97.0678 166.786 97.6558 167.104C98.2438 167.421 98.7011 167.874 99.0278 168.462C99.3638 169.05 99.5318 169.736 99.5318 170.52ZM97.0818 169.89C97.0818 169.479 96.9418 169.152 96.6618 168.91C96.3818 168.667 96.0318 168.546 95.6118 168.546C95.2105 168.546 94.8698 168.662 94.5898 168.896C94.3191 169.129 94.1511 169.46 94.0858 169.89H97.0818ZM103.035 172.578H106.423V174.552H100.361V172.648L103.609 168.714H100.389V166.74H106.353V168.644L103.035 172.578ZM113.101 167.846C113.334 167.482 113.656 167.188 114.067 166.964C114.478 166.74 114.958 166.628 115.509 166.628C116.153 166.628 116.736 166.791 117.259 167.118C117.782 167.444 118.192 167.911 118.491 168.518C118.799 169.124 118.953 169.829 118.953 170.632C118.953 171.434 118.799 172.144 118.491 172.76C118.192 173.366 117.782 173.838 117.259 174.174C116.736 174.5 116.153 174.664 115.509 174.664C114.968 174.664 114.487 174.552 114.067 174.328C113.656 174.104 113.334 173.814 113.101 173.46V178.276H110.707V166.74H113.101V167.846ZM116.517 170.632C116.517 170.034 116.349 169.568 116.013 169.232C115.686 168.886 115.28 168.714 114.795 168.714C114.319 168.714 113.913 168.886 113.577 169.232C113.25 169.577 113.087 170.048 113.087 170.646C113.087 171.243 113.25 171.714 113.577 172.06C113.913 172.405 114.319 172.578 114.795 172.578C115.271 172.578 115.677 172.405 116.013 172.06C116.349 171.705 116.517 171.229 116.517 170.632ZM119.733 170.632C119.733 169.829 119.882 169.124 120.181 168.518C120.489 167.911 120.904 167.444 121.427 167.118C121.949 166.791 122.533 166.628 123.177 166.628C123.727 166.628 124.208 166.74 124.619 166.964C125.039 167.188 125.361 167.482 125.585 167.846V166.74H127.979V174.552H125.585V173.446C125.351 173.81 125.025 174.104 124.605 174.328C124.194 174.552 123.713 174.664 123.163 174.664C122.528 174.664 121.949 174.5 121.427 174.174C120.904 173.838 120.489 173.366 120.181 172.76C119.882 172.144 119.733 171.434 119.733 170.632ZM125.585 170.646C125.585 170.048 125.417 169.577 125.081 169.232C124.754 168.886 124.353 168.714 123.877 168.714C123.401 168.714 122.995 168.886 122.659 169.232C122.332 169.568 122.169 170.034 122.169 170.632C122.169 171.229 122.332 171.705 122.659 172.06C122.995 172.405 123.401 172.578 123.877 172.578C124.353 172.578 124.754 172.405 125.081 172.06C125.417 171.714 125.585 171.243 125.585 170.646ZM132.889 174.664C132.207 174.664 131.601 174.547 131.069 174.314C130.537 174.08 130.117 173.763 129.809 173.362C129.501 172.951 129.328 172.494 129.291 171.99H131.657C131.685 172.26 131.811 172.48 132.035 172.648C132.259 172.816 132.534 172.9 132.861 172.9C133.159 172.9 133.388 172.844 133.547 172.732C133.715 172.61 133.799 172.456 133.799 172.27C133.799 172.046 133.682 171.882 133.449 171.78C133.215 171.668 132.837 171.546 132.315 171.416C131.755 171.285 131.288 171.15 130.915 171.01C130.541 170.86 130.219 170.632 129.949 170.324C129.678 170.006 129.543 169.582 129.543 169.05C129.543 168.602 129.664 168.196 129.907 167.832C130.159 167.458 130.523 167.164 130.999 166.95C131.484 166.735 132.058 166.628 132.721 166.628C133.701 166.628 134.471 166.87 135.031 167.356C135.6 167.841 135.927 168.485 136.011 169.288H133.799C133.761 169.017 133.64 168.802 133.435 168.644C133.239 168.485 132.977 168.406 132.651 168.406C132.371 168.406 132.156 168.462 132.007 168.574C131.857 168.676 131.783 168.821 131.783 169.008C131.783 169.232 131.899 169.4 132.133 169.512C132.375 169.624 132.749 169.736 133.253 169.848C133.831 169.997 134.303 170.146 134.667 170.296C135.031 170.436 135.348 170.669 135.619 170.996C135.899 171.313 136.043 171.742 136.053 172.284C136.053 172.741 135.922 173.152 135.661 173.516C135.409 173.87 135.04 174.15 134.555 174.356C134.079 174.561 133.523 174.664 132.889 174.664ZM147.848 170.52C147.848 170.744 147.834 170.977 147.806 171.22H142.388C142.426 171.705 142.58 172.078 142.85 172.34C143.13 172.592 143.471 172.718 143.872 172.718C144.47 172.718 144.885 172.466 145.118 171.962H147.666C147.536 172.475 147.298 172.937 146.952 173.348C146.616 173.758 146.192 174.08 145.678 174.314C145.165 174.547 144.591 174.664 143.956 174.664C143.191 174.664 142.51 174.5 141.912 174.174C141.315 173.847 140.848 173.38 140.512 172.774C140.176 172.167 140.008 171.458 140.008 170.646C140.008 169.834 140.172 169.124 140.498 168.518C140.834 167.911 141.301 167.444 141.898 167.118C142.496 166.791 143.182 166.628 143.956 166.628C144.712 166.628 145.384 166.786 145.972 167.104C146.56 167.421 147.018 167.874 147.344 168.462C147.68 169.05 147.848 169.736 147.848 170.52ZM145.398 169.89C145.398 169.479 145.258 169.152 144.978 168.91C144.698 168.667 144.348 168.546 143.928 168.546C143.527 168.546 143.186 168.662 142.906 168.896C142.636 169.129 142.468 169.46 142.402 169.89H145.398ZM153.871 166.656C154.786 166.656 155.514 166.954 156.055 167.552C156.606 168.14 156.881 168.952 156.881 169.988V174.552H154.501V170.31C154.501 169.787 154.366 169.381 154.095 169.092C153.824 168.802 153.46 168.658 153.003 168.658C152.546 168.658 152.182 168.802 151.911 169.092C151.64 169.381 151.505 169.787 151.505 170.31V174.552H149.111V166.74H151.505V167.776C151.748 167.43 152.074 167.16 152.485 166.964C152.896 166.758 153.358 166.656 153.871 166.656ZM158.069 170.646C158.069 169.834 158.232 169.124 158.559 168.518C158.895 167.911 159.357 167.444 159.945 167.118C160.542 166.791 161.223 166.628 161.989 166.628C162.969 166.628 163.785 166.884 164.439 167.398C165.101 167.911 165.535 168.634 165.741 169.568H163.193C162.978 168.97 162.563 168.672 161.947 168.672C161.508 168.672 161.158 168.844 160.897 169.19C160.635 169.526 160.505 170.011 160.505 170.646C160.505 171.28 160.635 171.77 160.897 172.116C161.158 172.452 161.508 172.62 161.947 172.62C162.563 172.62 162.978 172.321 163.193 171.724H165.741C165.535 172.638 165.101 173.357 164.439 173.88C163.776 174.402 162.959 174.664 161.989 174.664C161.223 174.664 160.542 174.5 159.945 174.174C159.357 173.847 158.895 173.38 158.559 172.774C158.232 172.167 158.069 171.458 158.069 170.646ZM170.577 174.664C169.812 174.664 169.121 174.5 168.505 174.174C167.899 173.847 167.418 173.38 167.063 172.774C166.718 172.167 166.545 171.458 166.545 170.646C166.545 169.843 166.723 169.138 167.077 168.532C167.432 167.916 167.917 167.444 168.533 167.118C169.149 166.791 169.84 166.628 170.605 166.628C171.371 166.628 172.061 166.791 172.677 167.118C173.293 167.444 173.779 167.916 174.133 168.532C174.488 169.138 174.665 169.843 174.665 170.646C174.665 171.448 174.483 172.158 174.119 172.774C173.765 173.38 173.275 173.847 172.649 174.174C172.033 174.5 171.343 174.664 170.577 174.664ZM170.577 172.592C171.035 172.592 171.422 172.424 171.739 172.088C172.066 171.752 172.229 171.271 172.229 170.646C172.229 170.02 172.071 169.54 171.753 169.204C171.445 168.868 171.063 168.7 170.605 168.7C170.139 168.7 169.751 168.868 169.443 169.204C169.135 169.53 168.981 170.011 168.981 170.646C168.981 171.271 169.131 171.752 169.429 172.088C169.737 172.424 170.12 172.592 170.577 172.592ZM178.329 168.042C178.609 167.612 178.959 167.276 179.379 167.034C179.799 166.782 180.266 166.656 180.779 166.656V169.19H180.121C179.524 169.19 179.076 169.32 178.777 169.582C178.479 169.834 178.329 170.282 178.329 170.926V174.552H175.935V166.74H178.329V168.042ZM189.288 170.52C189.288 170.744 189.274 170.977 189.246 171.22H183.828C183.865 171.705 184.019 172.078 184.29 172.34C184.57 172.592 184.91 172.718 185.312 172.718C185.909 172.718 186.324 172.466 186.558 171.962H189.106C188.975 172.475 188.737 172.937 188.392 173.348C188.056 173.758 187.631 174.08 187.118 174.314C186.604 174.547 186.03 174.664 185.396 174.664C184.63 174.664 183.949 174.5 183.352 174.174C182.754 173.847 182.288 173.38 181.952 172.774C181.616 172.167 181.448 171.458 181.448 170.646C181.448 169.834 181.611 169.124 181.938 168.518C182.274 167.911 182.74 167.444 183.338 167.118C183.935 166.791 184.621 166.628 185.396 166.628C186.152 166.628 186.824 166.786 187.412 167.104C188 167.421 188.457 167.874 188.784 168.462C189.12 169.05 189.288 169.736 189.288 170.52ZM186.838 169.89C186.838 169.479 186.698 169.152 186.418 168.91C186.138 168.667 185.788 168.546 185.368 168.546C184.966 168.546 184.626 168.662 184.346 168.896C184.075 169.129 183.907 169.46 183.842 169.89H186.838ZM200.881 170.52C200.881 170.744 200.867 170.977 200.839 171.22H195.421C195.459 171.705 195.613 172.078 195.883 172.34C196.163 172.592 196.504 172.718 196.905 172.718C197.503 172.718 197.918 172.466 198.151 171.962H200.699C200.569 172.475 200.331 172.937 199.985 173.348C199.649 173.758 199.225 174.08 198.711 174.314C198.198 174.547 197.624 174.664 196.989 174.664C196.224 174.664 195.543 174.5 194.945 174.174C194.348 173.847 193.881 173.38 193.545 172.774C193.209 172.167 193.041 171.458 193.041 170.646C193.041 169.834 193.205 169.124 193.531 168.518C193.867 167.911 194.334 167.444 194.931 167.118C195.529 166.791 196.215 166.628 196.989 166.628C197.745 166.628 198.417 166.786 199.005 167.104C199.593 167.421 200.051 167.874 200.377 168.462C200.713 169.05 200.881 169.736 200.881 170.52ZM198.431 169.89C198.431 169.479 198.291 169.152 198.011 168.91C197.731 168.667 197.381 168.546 196.961 168.546C196.56 168.546 196.219 168.662 195.939 168.896C195.669 169.129 195.501 169.46 195.435 169.89H198.431ZM206.904 166.656C207.819 166.656 208.547 166.954 209.088 167.552C209.639 168.14 209.914 168.952 209.914 169.988V174.552H207.534V170.31C207.534 169.787 207.399 169.381 207.128 169.092C206.858 168.802 206.494 168.658 206.036 168.658C205.579 168.658 205.215 168.802 204.944 169.092C204.674 169.381 204.538 169.787 204.538 170.31V174.552H202.144V166.74H204.538V167.776C204.781 167.43 205.108 167.16 205.518 166.964C205.929 166.758 206.391 166.656 206.904 166.656ZM213.972 168.042C214.252 167.612 214.602 167.276 215.022 167.034C215.442 166.782 215.909 166.656 216.422 166.656V169.19H215.764C215.167 169.19 214.719 169.32 214.42 169.582C214.121 169.834 213.972 170.282 213.972 170.926V174.552H211.578V166.74H213.972V168.042ZM224.93 170.52C224.93 170.744 224.916 170.977 224.888 171.22H219.47C219.508 171.705 219.662 172.078 219.932 172.34C220.212 172.592 220.553 172.718 220.954 172.718C221.552 172.718 221.967 172.466 222.2 171.962H224.748C224.618 172.475 224.38 172.937 224.034 173.348C223.698 173.758 223.274 174.08 222.76 174.314C222.247 174.547 221.673 174.664 221.038 174.664C220.273 174.664 219.592 174.5 218.994 174.174C218.397 173.847 217.93 173.38 217.594 172.774C217.258 172.167 217.09 171.458 217.09 170.646C217.09 169.834 217.254 169.124 217.58 168.518C217.916 167.911 218.383 167.444 218.98 167.118C219.578 166.791 220.264 166.628 221.038 166.628C221.794 166.628 222.466 166.786 223.054 167.104C223.642 167.421 224.1 167.874 224.426 168.462C224.762 169.05 224.93 169.736 224.93 170.52ZM222.48 169.89C222.48 169.479 222.34 169.152 222.06 168.91C221.78 168.667 221.43 168.546 221.01 168.546C220.609 168.546 220.268 168.662 219.988 168.896C219.718 169.129 219.55 169.46 219.484 169.89H222.48ZM229.161 166.628C229.712 166.628 230.193 166.74 230.603 166.964C231.023 167.188 231.345 167.482 231.569 167.846V166.74H233.963V174.538C233.963 175.256 233.819 175.905 233.529 176.484C233.249 177.072 232.815 177.538 232.227 177.884C231.649 178.229 230.925 178.402 230.057 178.402C228.9 178.402 227.962 178.126 227.243 177.576C226.525 177.034 226.114 176.297 226.011 175.364H228.377C228.452 175.662 228.629 175.896 228.909 176.064C229.189 176.241 229.535 176.33 229.945 176.33C230.44 176.33 230.832 176.185 231.121 175.896C231.42 175.616 231.569 175.163 231.569 174.538V173.432C231.336 173.796 231.014 174.094 230.603 174.328C230.193 174.552 229.712 174.664 229.161 174.664C228.517 174.664 227.934 174.5 227.411 174.174C226.889 173.838 226.473 173.366 226.165 172.76C225.867 172.144 225.717 171.434 225.717 170.632C225.717 169.829 225.867 169.124 226.165 168.518C226.473 167.911 226.889 167.444 227.411 167.118C227.934 166.791 228.517 166.628 229.161 166.628ZM231.569 170.646C231.569 170.048 231.401 169.577 231.065 169.232C230.739 168.886 230.337 168.714 229.861 168.714C229.385 168.714 228.979 168.886 228.643 169.232C228.317 169.568 228.153 170.034 228.153 170.632C228.153 171.229 228.317 171.705 228.643 172.06C228.979 172.405 229.385 172.578 229.861 172.578C230.337 172.578 230.739 172.405 231.065 172.06C231.401 171.714 231.569 171.243 231.569 170.646ZM236.899 165.928C236.479 165.928 236.134 165.806 235.863 165.564C235.602 165.312 235.471 165.004 235.471 164.64C235.471 164.266 235.602 163.958 235.863 163.716C236.134 163.464 236.479 163.338 236.899 163.338C237.31 163.338 237.646 163.464 237.907 163.716C238.178 163.958 238.313 164.266 238.313 164.64C238.313 165.004 238.178 165.312 237.907 165.564C237.646 165.806 237.31 165.928 236.899 165.928ZM238.089 166.74V174.552H235.695V166.74H238.089ZM243.002 174.664C242.321 174.664 241.714 174.547 241.182 174.314C240.65 174.08 240.23 173.763 239.922 173.362C239.614 172.951 239.441 172.494 239.404 171.99H241.77C241.798 172.26 241.924 172.48 242.148 172.648C242.372 172.816 242.647 172.9 242.974 172.9C243.273 172.9 243.501 172.844 243.66 172.732C243.828 172.61 243.912 172.456 243.912 172.27C243.912 172.046 243.795 171.882 243.562 171.78C243.329 171.668 242.951 171.546 242.428 171.416C241.868 171.285 241.401 171.15 241.028 171.01C240.655 170.86 240.333 170.632 240.062 170.324C239.791 170.006 239.656 169.582 239.656 169.05C239.656 168.602 239.777 168.196 240.02 167.832C240.272 167.458 240.636 167.164 241.112 166.95C241.597 166.735 242.171 166.628 242.834 166.628C243.814 166.628 244.584 166.87 245.144 167.356C245.713 167.841 246.04 168.485 246.124 169.288H243.912C243.875 169.017 243.753 168.802 243.548 168.644C243.352 168.485 243.091 168.406 242.764 168.406C242.484 168.406 242.269 168.462 242.12 168.574C241.971 168.676 241.896 168.821 241.896 169.008C241.896 169.232 242.013 169.4 242.246 169.512C242.489 169.624 242.862 169.736 243.366 169.848C243.945 169.997 244.416 170.146 244.78 170.296C245.144 170.436 245.461 170.669 245.732 170.996C246.012 171.313 246.157 171.742 246.166 172.284C246.166 172.741 246.035 173.152 245.774 173.516C245.522 173.87 245.153 174.15 244.668 174.356C244.192 174.561 243.637 174.664 243.002 174.664ZM251.985 172.522V174.552H250.767C249.899 174.552 249.222 174.342 248.737 173.922C248.251 173.492 248.009 172.797 248.009 171.836V168.728H247.057V166.74H248.009V164.836H250.403V166.74H251.971V168.728H250.403V171.864C250.403 172.097 250.459 172.265 250.571 172.368C250.683 172.47 250.869 172.522 251.131 172.522H251.985ZM255.712 168.042C255.992 167.612 256.342 167.276 256.762 167.034C257.182 166.782 257.649 166.656 258.162 166.656V169.19H257.504C256.907 169.19 256.459 169.32 256.16 169.582C255.862 169.834 255.712 170.282 255.712 170.926V174.552H253.318V166.74H255.712V168.042ZM266.67 170.52C266.67 170.744 266.656 170.977 266.628 171.22H261.21C261.248 171.705 261.402 172.078 261.672 172.34C261.952 172.592 262.293 172.718 262.694 172.718C263.292 172.718 263.707 172.466 263.94 171.962H266.488C266.358 172.475 266.12 172.937 265.774 173.348C265.438 173.758 265.014 174.08 264.5 174.314C263.987 174.547 263.413 174.664 262.778 174.664C262.013 174.664 261.332 174.5 260.734 174.174C260.137 173.847 259.67 173.38 259.334 172.774C258.998 172.167 258.83 171.458 258.83 170.646C258.83 169.834 258.994 169.124 259.32 168.518C259.656 167.911 260.123 167.444 260.72 167.118C261.318 166.791 262.004 166.628 262.778 166.628C263.534 166.628 264.206 166.786 264.794 167.104C265.382 167.421 265.84 167.874 266.166 168.462C266.502 169.05 266.67 169.736 266.67 170.52ZM264.22 169.89C264.22 169.479 264.08 169.152 263.8 168.91C263.52 168.667 263.17 168.546 262.75 168.546C262.349 168.546 262.008 168.662 261.728 168.896C261.458 169.129 261.29 169.46 261.224 169.89H264.22ZM270.327 168.042C270.607 167.612 270.957 167.276 271.377 167.034C271.797 166.782 272.264 166.656 272.777 166.656V169.19H272.119C271.522 169.19 271.074 169.32 270.775 169.582C270.477 169.834 270.327 170.282 270.327 170.926V174.552H267.933V166.74H270.327V168.042ZM276.413 170.632C276.413 169.829 276.562 169.124 276.861 168.518C277.169 167.911 277.584 167.444 278.107 167.118C278.629 166.791 279.213 166.628 279.857 166.628C280.37 166.628 280.837 166.735 281.257 166.95C281.686 167.164 282.022 167.454 282.265 167.818V164.192H284.659V174.552H282.265V173.432C282.041 173.805 281.719 174.104 281.299 174.328C280.888 174.552 280.407 174.664 279.857 174.664C279.213 174.664 278.629 174.5 278.107 174.174C277.584 173.838 277.169 173.366 276.861 172.76C276.562 172.144 276.413 171.434 276.413 170.632ZM282.265 170.646C282.265 170.048 282.097 169.577 281.761 169.232C281.434 168.886 281.033 168.714 280.557 168.714C280.081 168.714 279.675 168.886 279.339 169.232C279.012 169.568 278.849 170.034 278.849 170.632C278.849 171.229 279.012 171.705 279.339 172.06C279.675 172.405 280.081 172.578 280.557 172.578C281.033 172.578 281.434 172.405 281.761 172.06C282.097 171.714 282.265 171.243 282.265 170.646ZM293.754 170.52C293.754 170.744 293.74 170.977 293.712 171.22H288.294C288.332 171.705 288.486 172.078 288.756 172.34C289.036 172.592 289.377 172.718 289.778 172.718C290.376 172.718 290.791 172.466 291.024 171.962H293.572C293.442 172.475 293.204 172.937 292.858 173.348C292.522 173.758 292.098 174.08 291.584 174.314C291.071 174.547 290.497 174.664 289.862 174.664C289.097 174.664 288.416 174.5 287.818 174.174C287.221 173.847 286.754 173.38 286.418 172.774C286.082 172.167 285.914 171.458 285.914 170.646C285.914 169.834 286.078 169.124 286.404 168.518C286.74 167.911 287.207 167.444 287.804 167.118C288.402 166.791 289.088 166.628 289.862 166.628C290.618 166.628 291.29 166.786 291.878 167.104C292.466 167.421 292.924 167.874 293.25 168.462C293.586 169.05 293.754 169.736 293.754 170.52ZM291.304 169.89C291.304 169.479 291.164 169.152 290.884 168.91C290.604 168.667 290.254 168.546 289.834 168.546C289.433 168.546 289.092 168.662 288.812 168.896C288.542 169.129 288.374 169.46 288.308 169.89H291.304ZM132.044 187.656C132.959 187.656 133.687 187.954 134.228 188.552C134.779 189.14 135.054 189.952 135.054 190.988V195.552H132.674V191.31C132.674 190.787 132.539 190.381 132.268 190.092C131.997 189.802 131.633 189.658 131.176 189.658C130.719 189.658 130.355 189.802 130.084 190.092C129.813 190.381 129.678 190.787 129.678 191.31V195.552H127.284V187.74H129.678V188.776C129.921 188.43 130.247 188.16 130.658 187.964C131.069 187.758 131.531 187.656 132.044 187.656ZM144.432 187.74V195.552H142.038V194.488C141.795 194.833 141.464 195.113 141.044 195.328C140.633 195.533 140.176 195.636 139.672 195.636C139.074 195.636 138.547 195.505 138.09 195.244C137.632 194.973 137.278 194.586 137.026 194.082C136.774 193.578 136.648 192.985 136.648 192.304V187.74H139.028V191.982C139.028 192.504 139.163 192.91 139.434 193.2C139.704 193.489 140.068 193.634 140.526 193.634C140.992 193.634 141.361 193.489 141.632 193.2C141.902 192.91 142.038 192.504 142.038 191.982V187.74H144.432ZM156.119 187.656C157.09 187.656 157.86 187.95 158.429 188.538C159.008 189.126 159.297 189.942 159.297 190.988V195.552H156.917V191.31C156.917 190.806 156.782 190.418 156.511 190.148C156.25 189.868 155.886 189.728 155.419 189.728C154.953 189.728 154.584 189.868 154.313 190.148C154.052 190.418 153.921 190.806 153.921 191.31V195.552H151.541V191.31C151.541 190.806 151.406 190.418 151.135 190.148C150.874 189.868 150.51 189.728 150.043 189.728C149.577 189.728 149.208 189.868 148.937 190.148C148.676 190.418 148.545 190.806 148.545 191.31V195.552H146.151V187.74H148.545V188.72C148.788 188.393 149.105 188.136 149.497 187.95C149.889 187.754 150.333 187.656 150.827 187.656C151.415 187.656 151.938 187.782 152.395 188.034C152.862 188.286 153.226 188.645 153.487 189.112C153.758 188.682 154.127 188.332 154.593 188.062C155.06 187.791 155.569 187.656 156.119 187.656ZM168.336 191.52C168.336 191.744 168.322 191.977 168.294 192.22H162.876C162.913 192.705 163.067 193.078 163.338 193.34C163.618 193.592 163.958 193.718 164.36 193.718C164.957 193.718 165.372 193.466 165.606 192.962H168.154C168.023 193.475 167.785 193.937 167.44 194.348C167.104 194.758 166.679 195.08 166.166 195.314C165.652 195.547 165.078 195.664 164.444 195.664C163.678 195.664 162.997 195.5 162.4 195.174C161.802 194.847 161.336 194.38 161 193.774C160.664 193.167 160.496 192.458 160.496 191.646C160.496 190.834 160.659 190.124 160.986 189.518C161.322 188.911 161.788 188.444 162.386 188.118C162.983 187.791 163.669 187.628 164.444 187.628C165.2 187.628 165.872 187.786 166.46 188.104C167.048 188.421 167.505 188.874 167.832 189.462C168.168 190.05 168.336 190.736 168.336 191.52ZM165.886 190.89C165.886 190.479 165.746 190.152 165.466 189.91C165.186 189.667 164.836 189.546 164.416 189.546C164.014 189.546 163.674 189.662 163.394 189.896C163.123 190.129 162.955 190.46 162.89 190.89H165.886ZM171.992 189.042C172.272 188.612 172.622 188.276 173.042 188.034C173.462 187.782 173.929 187.656 174.442 187.656V190.19H173.784C173.187 190.19 172.739 190.32 172.44 190.582C172.142 190.834 171.992 191.282 171.992 191.926V195.552H169.598V187.74H171.992V189.042ZM179.143 195.664C178.377 195.664 177.687 195.5 177.071 195.174C176.464 194.847 175.983 194.38 175.629 193.774C175.283 193.167 175.111 192.458 175.111 191.646C175.111 190.843 175.288 190.138 175.643 189.532C175.997 188.916 176.483 188.444 177.099 188.118C177.715 187.791 178.405 187.628 179.171 187.628C179.936 187.628 180.627 187.791 181.243 188.118C181.859 188.444 182.344 188.916 182.699 189.532C183.053 190.138 183.231 190.843 183.231 191.646C183.231 192.448 183.049 193.158 182.685 193.774C182.33 194.38 181.84 194.847 181.215 195.174C180.599 195.5 179.908 195.664 179.143 195.664ZM179.143 193.592C179.6 193.592 179.987 193.424 180.305 193.088C180.631 192.752 180.795 192.271 180.795 191.646C180.795 191.02 180.636 190.54 180.319 190.204C180.011 189.868 179.628 189.7 179.171 189.7C178.704 189.7 178.317 189.868 178.009 190.204C177.701 190.53 177.547 191.011 177.547 191.646C177.547 192.271 177.696 192.752 177.995 193.088C178.303 193.424 178.685 193.592 179.143 193.592ZM185.621 195.664C185.201 195.664 184.855 195.542 184.585 195.3C184.323 195.048 184.193 194.74 184.193 194.376C184.193 194.002 184.323 193.69 184.585 193.438C184.855 193.186 185.201 193.06 185.621 193.06C186.031 193.06 186.367 193.186 186.629 193.438C186.899 193.69 187.035 194.002 187.035 194.376C187.035 194.74 186.899 195.048 186.629 195.3C186.367 195.542 186.031 195.664 185.621 195.664Z" fill="#202020" fill-opacity="0.5"/>
<defs>
<clipPath id="clip0_351_1929">
<rect width="178.21" height="151.189" fill="white" transform="translate(67.895 0.362793)"/>
</clipPath>
</defs>
</svg>
