<svg width="247" height="188" viewBox="0 0 247 188" fill="none" xmlns="http://www.w3.org/2000/svg">
<g clip-path="url(#clip0_352_2779)">
<path d="M98.9423 38.805H98.045V14.2258C98.045 12.3576 97.6771 10.5078 96.9622 8.78182C96.2472 7.05587 95.1994 5.48763 93.8784 4.16664C92.5574 2.84566 90.9892 1.79779 89.2632 1.08288C87.5373 0.367965 85.6874 1.58285e-06 83.8193 0H31.7448C27.9719 -7.19246e-06 24.3536 1.49877 21.6857 4.16661C19.0178 6.83446 17.5191 10.4528 17.519 14.2257V149.069C17.519 150.937 17.887 152.787 18.6019 154.513C19.3168 156.239 20.3647 157.807 21.6857 159.128C23.0067 160.449 24.5749 161.497 26.3008 162.212C28.0268 162.927 29.8767 163.295 31.7448 163.295H83.8192C87.5921 163.295 91.2105 161.796 93.8783 159.128C96.5462 156.461 98.045 152.842 98.045 149.069V56.3009H98.9423V38.805Z" fill="#3F3D56"/>
<path d="M84.3932 3.70117H77.5957C77.9083 4.46756 78.0277 5.29906 77.9432 6.12242C77.8588 6.94579 77.5731 7.73575 77.1114 8.42271C76.6498 9.10968 76.0262 9.67256 75.2958 10.0618C74.5653 10.451 73.7503 10.6546 72.9227 10.6547H43.0899C42.2622 10.6546 41.4473 10.451 40.7168 10.0618C39.9863 9.67256 39.3628 9.10968 38.9011 8.42272C38.4395 7.73575 38.1538 6.94579 38.0693 6.12243C37.9849 5.29906 38.1042 4.46756 38.4168 3.70117H32.068C30.6729 3.70117 29.2914 3.97596 28.0025 4.50985C26.7136 5.04374 25.5424 5.82627 24.5559 6.81276C23.5694 7.79926 22.7869 8.9704 22.253 10.2593C21.7191 11.5482 21.4443 12.9297 21.4443 14.3248V148.97C21.4443 150.366 21.7191 151.747 22.253 153.036C22.7869 154.325 23.5694 155.496 24.5559 156.483C25.5424 157.469 26.7136 158.252 28.0025 158.785C29.2914 159.319 30.6729 159.594 32.068 159.594H84.3932C85.7883 159.594 87.1697 159.319 88.4587 158.785C89.7476 158.252 90.9187 157.469 91.9052 156.483C92.8917 155.496 93.6743 154.325 94.2082 153.036C94.742 151.747 95.0168 150.366 95.0168 148.97V14.3248C95.0168 12.9297 94.742 11.5482 94.2082 10.2593C93.6743 8.9704 92.8917 7.79926 91.9052 6.81276C90.9187 5.82627 89.7476 5.04374 88.4587 4.50985C87.1697 3.97596 85.7883 3.70117 84.3932 3.70117Z" fill="white"/>
<path d="M115.633 163.318H0.828181C0.748264 163.318 0.671621 163.287 0.615111 163.23C0.558602 163.174 0.526855 163.097 0.526855 163.017C0.526855 162.937 0.558602 162.861 0.615111 162.804C0.671621 162.748 0.748264 162.716 0.828181 162.716H115.633C115.713 162.716 115.79 162.748 115.846 162.804C115.903 162.861 115.934 162.937 115.934 163.017C115.934 163.097 115.903 163.174 115.846 163.23C115.79 163.287 115.713 163.318 115.633 163.318Z" fill="#CBCBCB"/>
<path d="M58.2304 104.162C72.2838 104.162 83.6762 92.7698 83.6762 78.7165C83.6762 64.6632 72.2838 53.2708 58.2304 53.2708C44.1771 53.2708 32.7847 64.6632 32.7847 78.7165C32.7847 92.7698 44.1771 104.162 58.2304 104.162Z" fill="#8C034E"/>
<path d="M55.7091 88.423C55.1366 88.424 54.5794 88.2388 54.1214 87.8954L54.093 87.8741L48.1129 83.2995C47.8359 83.0872 47.6035 82.8224 47.4289 82.5202C47.2542 82.218 47.1409 81.8845 47.0952 81.5385C47.0495 81.1925 47.0723 80.8409 47.1625 80.5037C47.2527 80.1666 47.4084 79.8505 47.6207 79.5736C47.8331 79.2966 48.0979 79.0642 48.4 78.8896C48.7022 78.7149 49.0358 78.6015 49.3818 78.5558C49.7278 78.5101 50.0794 78.533 50.4165 78.6232C50.7536 78.7134 51.0697 78.8691 51.3467 79.0814L55.2201 82.0517L64.3732 70.1105C64.5854 69.8337 64.8501 69.6013 65.1522 69.4268C65.4542 69.2522 65.7877 69.1389 66.1335 69.0932C66.4793 69.0475 66.8308 69.0704 67.1678 69.1605C67.5048 69.2507 67.8207 69.4063 68.0976 69.6186L68.0984 69.6191L68.0415 69.698L68.0999 69.6191C68.6584 70.0484 69.0238 70.6817 69.116 71.3801C69.2081 72.0785 69.0194 72.7849 68.5913 73.3443L57.8252 87.3835C57.5761 87.707 57.2559 87.9688 56.8893 88.1485C56.5227 88.3282 56.1197 88.4211 55.7114 88.4199L55.7091 88.423Z" fill="white"/>
<path d="M209.72 165.819C210.03 165.319 210.394 164.855 210.807 164.435C210.977 164.258 211.156 164.092 211.341 163.93C212.466 162.929 213.838 162.245 215.315 161.95C216.792 161.654 218.321 161.757 219.745 162.248C221.168 162.74 222.436 163.601 223.416 164.744C224.397 165.888 225.055 167.272 225.323 168.754C226.566 164.158 223.331 159.631 220.079 156.154C216.824 152.678 213.105 148.864 213.124 144.101C213.133 141.451 214.429 139.086 216.387 137.333C216.447 137.28 216.507 137.227 216.569 137.176C218.935 135.148 221.979 134.087 225.093 134.205C230.878 134.515 235.929 138.403 239.437 143.016C245.084 150.436 247.558 160.853 243.605 169.3C240.128 176.73 232.713 181.142 225.145 184.689C224.088 185.184 223.033 185.665 221.98 186.13C221.974 186.132 221.966 186.137 221.959 186.139C221.908 186.161 221.858 186.183 221.81 186.206C221.593 186.302 221.376 186.398 221.16 186.493L221.26 186.558L221.571 186.759C221.463 186.694 221.356 186.631 221.249 186.565C221.217 186.545 221.183 186.527 221.151 186.507C217.434 184.277 213.665 181.917 211.097 178.435C208.434 174.82 207.363 169.641 209.72 165.819Z" fill="#F1F1F1"/>
<path d="M234.52 157.423C235.344 159.296 235.889 161.278 236.14 163.308C236.338 165.118 236.264 166.948 235.92 168.736C235.182 172.41 233.572 175.854 231.226 178.777C229.456 180.996 227.413 182.982 225.145 184.689C224.088 185.184 223.033 185.665 221.981 186.13C221.974 186.132 221.966 186.137 221.959 186.139C221.909 186.161 221.858 186.183 221.81 186.206C221.593 186.302 221.376 186.398 221.161 186.493L221.26 186.558L221.571 186.759C221.464 186.694 221.357 186.631 221.249 186.565C221.217 186.545 221.183 186.527 221.151 186.507C221.969 183.646 222.089 180.63 221.502 177.712C220.914 174.795 219.636 172.061 217.774 169.739C215.902 167.447 213.515 165.629 210.807 164.435C210.977 164.258 211.157 164.092 211.342 163.93C212.385 164.409 213.383 164.98 214.326 165.634C217.697 167.964 220.228 171.318 221.545 175.198C222.721 178.719 222.868 182.502 221.968 186.103C222.155 185.981 222.342 185.856 222.524 185.731C225.987 183.396 229.179 180.591 231.582 177.152C233.656 174.246 234.983 170.874 235.446 167.334C235.907 163.467 234.939 159.664 233.213 156.213C231.306 152.522 228.904 149.108 226.072 146.068C223.228 142.943 220.013 140.178 216.497 137.835C216.418 137.781 216.363 137.699 216.342 137.606C216.321 137.513 216.338 137.415 216.387 137.333C216.425 137.259 216.49 137.202 216.569 137.176C216.61 137.166 216.652 137.165 216.692 137.173C216.733 137.181 216.771 137.198 216.804 137.224C217.238 137.513 217.669 137.805 218.094 138.106C221.634 140.613 224.849 143.55 227.665 146.849C230.387 150.03 232.863 153.563 234.52 157.423Z" fill="white"/>
<path d="M158.735 11.8151C161.72 11.8151 164.139 9.3956 164.139 6.41107C164.139 3.42653 161.72 1.00708 158.735 1.00708C155.751 1.00708 153.331 3.42653 153.331 6.41107C153.331 9.3956 155.751 11.8151 158.735 11.8151Z" fill="#F1F1F1"/>
<path d="M225.93 84.1331C227.75 84.1331 229.225 82.658 229.225 80.8384C229.225 79.0188 227.75 77.5437 225.93 77.5437C224.111 77.5437 222.636 79.0188 222.636 80.8384C222.636 82.658 224.111 84.1331 225.93 84.1331Z" fill="#F1F1F1"/>
<path d="M129.507 93.1729C131.326 93.1729 132.801 91.6978 132.801 89.8782C132.801 88.0586 131.326 86.5835 129.507 86.5835C127.687 86.5835 126.212 88.0586 126.212 89.8782C126.212 91.6978 127.687 93.1729 129.507 93.1729Z" fill="#F1F1F1"/>
<path d="M131.367 187.123H246.172C246.252 187.123 246.328 187.091 246.385 187.035C246.441 186.978 246.473 186.902 246.473 186.822C246.473 186.742 246.441 186.665 246.385 186.609C246.328 186.552 246.252 186.521 246.172 186.521H131.367C131.287 186.521 131.21 186.552 131.154 186.609C131.097 186.665 131.065 186.742 131.065 186.822C131.065 186.902 131.097 186.978 131.154 187.035C131.21 187.091 131.287 187.123 131.367 187.123Z" fill="#CBCBCB"/>
<path d="M233.502 29.1187C233.653 28.0484 233.406 26.96 232.808 26.0598C232.21 25.1595 231.302 24.5099 230.257 24.2341C229.212 23.9583 228.102 24.0754 227.138 24.5632C226.173 25.051 225.421 25.8757 225.024 26.881L215.708 37.5613L218.442 45.1959L227.811 32.7164C228.422 32.9123 229.069 32.9717 229.706 32.8905C230.343 32.8092 230.954 32.5894 231.496 32.2464C232.039 31.9034 232.5 31.4456 232.847 30.9052C233.193 30.3648 233.417 29.755 233.502 29.1187Z" fill="#FFB7B7"/>
<path d="M194.886 70.6755L225.81 37.6716L221.639 31.04L182.852 63.8435L194.886 70.6755Z" fill="#3F3D56"/>
<path d="M187.983 50.6227C193.974 50.6227 198.831 45.766 198.831 39.775C198.831 33.7839 193.974 28.9272 187.983 28.9272C181.992 28.9272 177.136 33.7839 177.136 39.775C177.136 45.766 181.992 50.6227 187.983 50.6227Z" fill="#2F2E41"/>
<path d="M188.855 33.6471C191.19 31.28 194.014 29.4534 197.131 28.2958C199.131 27.5547 201.309 27.0969 203.4 27.5177C205.491 27.9386 207.469 29.3854 208.052 31.4373C208.53 33.1152 208.037 34.9218 207.296 36.5012C206.556 38.0807 205.568 39.5454 204.969 41.1838C204.358 42.8555 204.174 44.6534 204.434 46.4142C204.695 48.175 205.39 49.8429 206.459 51.2666C207.527 52.6902 208.934 53.8245 210.552 54.5665C212.169 55.3085 213.947 55.6347 215.723 55.5155C213.668 55.791 211.774 56.7567 209.765 57.2707C207.757 57.7847 205.386 57.7498 203.894 56.3109C202.315 54.7885 202.283 52.3132 202.359 50.1209C202.473 46.8621 202.586 43.6033 202.7 40.3444C202.758 38.6825 202.807 36.9673 202.208 35.4161C201.608 33.8649 200.184 32.5066 198.521 32.5207C197.261 32.5314 196.145 33.2949 195.135 34.0478C194.124 34.8008 193.054 35.6041 191.799 35.7161C190.543 35.8281 189.11 34.8991 189.204 33.6422L188.855 33.6471Z" fill="#2F2E41"/>
<path d="M146.783 112.612C145.742 112.901 144.631 112.799 143.66 112.323C142.689 111.848 141.927 111.033 141.517 110.033C141.107 109.033 141.078 107.917 141.435 106.897C141.793 105.877 142.512 105.024 143.457 104.499L152.828 93.8672L160.755 95.5796L149.606 106.499C149.88 107.08 150.024 107.713 150.027 108.355C150.029 108.997 149.891 109.632 149.622 110.215C149.353 110.798 148.959 111.314 148.469 111.728C147.978 112.143 147.403 112.444 146.783 112.612Z" fill="#FFB7B7"/>
<path d="M177.615 74.5495L154.258 103.868L147.138 100.6L174.592 57.8582L177.615 74.5495Z" fill="#3F3D56"/>
<path d="M158.978 163.081L153.412 162.993L154.081 181.966H158.977L158.978 163.081Z" fill="#FFB7B7"/>
<path d="M160.226 180.368L150.583 180.367H150.583C148.953 180.368 147.39 181.015 146.238 182.167C145.086 183.32 144.438 184.883 144.438 186.512V186.712L160.226 186.713L160.226 180.368Z" fill="#2F2E41"/>
<path d="M195.835 158.048L189.754 161.952L201.918 176.586L206.039 173.941L195.835 158.048Z" fill="#FFB7B7"/>
<path d="M206.226 171.921L198.111 177.13L198.111 177.131C196.74 178.011 195.774 179.4 195.427 180.993C195.08 182.585 195.38 184.25 196.26 185.622L196.368 185.79L209.654 177.26L206.226 171.921Z" fill="#2F2E41"/>
<path d="M198.002 100.112C198.002 100.112 184.49 55.2368 180.148 54.6304C175.806 54.024 168.81 66.145 168.81 66.145C159.739 77.7183 150.386 115.207 150.386 115.207C150.386 115.207 165.978 116.183 177.376 122.247C188.775 128.311 202.226 121.94 202.226 121.94L198.002 100.112Z" fill="#3F3D56"/>
<path opacity="0.1" d="M198.002 100.112C198.002 100.112 184.49 55.2366 180.148 54.6302C175.806 54.0238 170.587 66.2678 170.587 66.2678C166.067 84.9499 150.386 115.207 150.386 115.207C150.386 115.207 165.978 116.183 177.376 122.247C188.775 128.311 202.226 121.94 202.226 121.94L198.002 100.112Z" fill="black"/>
<path d="M186.917 86.686V109.236L189.571 141.901L202.829 166.609L196.501 171.129L178.421 147.626L171.271 124.288L160.041 175.95L151.604 175.348L157.463 103.719L168.582 83.5576L186.917 86.686Z" fill="#2F2E41"/>
<path d="M173.294 64.8754C169.075 69.094 172.993 73.6139 172.993 73.6139L168.171 84.4616L187.155 89.5841L193.789 59.9402L189.269 55.119C180.229 54.8177 180.224 54.6304 180.224 54.6304C178.641 56.1803 173.294 64.8754 173.294 64.8754Z" fill="#8C034E"/>
<path d="M194.553 56.8689C193.691 56.2325 192.711 55.7735 191.67 55.5184C190.63 55.2634 189.548 55.2174 188.49 55.3831C187.431 55.5488 186.416 55.923 185.502 56.4839C184.589 57.0448 183.797 57.7813 183.17 58.6507C178.398 65.2956 173.985 76.0254 180.065 89.4075C189.828 110.895 198.323 121.895 201.777 121.894C201.928 121.895 202.078 121.871 202.221 121.824C204.347 121.103 207.421 117.505 207.977 114.335C208.176 113.2 208.129 111.62 206.772 110.535C202.874 107.417 195.877 97.7098 193.694 84.9329C192.487 77.873 194.827 71.442 197.002 67.2904C197.92 65.5726 198.189 63.5812 197.759 61.6813C197.328 59.7815 196.228 58.1003 194.658 56.9462L194.553 56.8689Z" fill="#3F3D56"/>
<path d="M188.541 49.5571C192.411 47.4417 193.833 42.59 191.718 38.7203C189.603 34.8507 184.751 33.4285 180.881 35.5439C177.011 37.6592 175.589 42.511 177.705 46.3806C179.82 50.2503 184.672 51.6724 188.541 49.5571Z" fill="#FFB7B7"/>
<path d="M173.481 41.9466H185.012L185.13 40.2911L185.721 41.9466H187.497L187.731 38.6656L188.903 41.9466H192.338V41.784C192.336 39.4998 191.427 37.3099 189.812 35.6947C188.197 34.0796 186.007 33.171 183.723 33.1685H182.097C179.813 33.171 177.623 34.0796 176.008 35.6947C174.393 37.3099 173.484 39.4998 173.481 41.784V41.9466Z" fill="#2F2E41"/>
<path d="M190.596 47.8969L195.517 46.3003V34.3511H186.223L186.453 34.5808C189.654 37.7782 193.215 49.1219 190.596 47.8969Z" fill="#2F2E41"/>
</g>
<defs>
<clipPath id="clip0_352_2779">
<rect width="245.946" height="187.123" fill="white" transform="translate(0.526855)"/>
</clipPath>
</defs>
</svg>
