<svg width="41" height="32" viewBox="0 0 41 32" fill="none" xmlns="http://www.w3.org/2000/svg">
<g clip-path="url(#clip0_352_3574)">
<path d="M7.43782 31.6459V29.5409C7.43782 28.7338 6.94653 28.2077 6.10445 28.2077C5.68349 28.2077 5.22736 28.348 4.91156 28.8042C4.66608 28.4182 4.31528 28.2077 3.78899 28.2077C3.43803 28.2077 3.08739 28.3129 2.80659 28.6988V28.2779H2.06982V31.6459H2.80659V29.7864C2.80659 29.1901 3.12239 28.9093 3.61367 28.9093C4.10464 28.9093 4.35044 29.2251 4.35044 29.7864V31.6459H5.0872V29.7864C5.0872 29.1901 5.43785 28.9093 5.89397 28.9093C6.38525 28.9093 6.63073 29.2251 6.63073 29.7864V31.6459H7.43782ZM18.3488 28.2779H17.1561V27.2605H16.4193V28.2779H15.7527V28.9443H16.4192V30.4882C16.4192 31.2601 16.735 31.7161 17.577 31.7161C17.8928 31.7161 18.2435 31.6109 18.4893 31.4706L18.2786 30.839C18.0682 30.9793 17.8227 31.0145 17.6472 31.0145C17.2964 31.0145 17.1561 30.804 17.1561 30.453V28.9443H18.3488V28.2779ZM24.5939 28.2076C24.1729 28.2076 23.8923 28.4182 23.7168 28.6988V28.2779H22.98V31.6459H23.7168V29.7514C23.7168 29.1901 23.9623 28.8743 24.4184 28.8743C24.5587 28.8743 24.7342 28.9095 24.8745 28.9445L25.085 28.2429C24.9447 28.2077 24.7342 28.2077 24.5939 28.2077M15.1563 28.5587C14.8053 28.313 14.3142 28.2079 13.7879 28.2079C12.946 28.2079 12.3847 28.6288 12.3847 29.2954C12.3847 29.8569 12.8057 30.1725 13.5424 30.2778L13.8932 30.313C14.2792 30.383 14.4897 30.4883 14.4897 30.6638C14.4897 30.9093 14.209 31.0848 13.7177 31.0848C13.2266 31.0848 12.8407 30.9093 12.595 30.734L12.2442 31.2953C12.6302 31.5759 13.1565 31.7162 13.6826 31.7162C14.665 31.7162 15.2264 31.2603 15.2264 30.6286C15.2264 30.0322 14.7703 29.7164 14.0685 29.6112L13.7177 29.5761C13.4019 29.5409 13.1565 29.4709 13.1565 29.2604C13.1565 29.0148 13.4019 28.8745 13.7879 28.8745C14.209 28.8745 14.63 29.0498 14.8405 29.1551L15.1563 28.5587ZM34.7333 28.2079C34.3121 28.2079 34.0315 28.4184 33.856 28.699V28.278H33.1193V31.6461H33.856V29.7516C33.856 29.1903 34.1017 28.8745 34.5576 28.8745C34.6981 28.8745 34.8736 28.9096 35.0139 28.9446L35.2244 28.243C35.0841 28.2079 34.8736 28.2079 34.7333 28.2079ZM25.3306 29.962C25.3306 30.9795 26.0323 31.7162 27.12 31.7162C27.6111 31.7162 27.9619 31.6111 28.3127 31.3304L27.9619 30.734C27.6813 30.9444 27.4006 31.0496 27.0848 31.0496C26.4884 31.0496 26.0674 30.6286 26.0674 29.962C26.0674 29.3306 26.4884 28.9095 27.0848 28.8745C27.4006 28.8745 27.6813 28.9796 27.9619 29.1903L28.3127 28.5938C27.9619 28.313 27.6111 28.2079 27.12 28.2079C26.0323 28.2079 25.3306 28.9446 25.3306 29.962ZM32.137 29.962V28.278H31.4002V28.699C31.1546 28.3834 30.8038 28.2079 30.3477 28.2079C29.4004 28.2079 28.6637 28.9446 28.6637 29.962C28.6637 30.9795 29.4004 31.7162 30.3477 31.7162C30.8388 31.7162 31.1898 31.5409 31.4002 31.2251V31.6461H32.137V29.962ZM29.4354 29.962C29.4354 29.3656 29.8214 28.8745 30.4528 28.8745C31.0493 28.8745 31.4704 29.3306 31.4704 29.962C31.4704 30.5585 31.0493 31.0496 30.4528 31.0496C29.8214 31.0145 29.4354 30.5585 29.4354 29.962ZM20.6294 28.2079C19.647 28.2079 18.9452 28.9095 18.9452 29.962C18.9452 31.0146 19.6469 31.7162 20.6644 31.7162C21.1555 31.7162 21.6468 31.5759 22.0328 31.2603L21.6818 30.734C21.4012 30.9444 21.0504 31.0848 20.6996 31.0848C20.2435 31.0848 19.7873 30.8743 19.682 30.2777H22.1731V29.9972C22.2083 28.9095 21.5768 28.2079 20.6294 28.2079ZM20.6293 28.8393C21.0852 28.8393 21.4012 29.1201 21.4712 29.6464H19.717C19.7872 29.1903 20.103 28.8393 20.6293 28.8393ZM38.9081 29.962V26.9448H38.1713V28.699C37.9256 28.3834 37.5748 28.2079 37.1187 28.2079C36.1715 28.2079 35.4347 28.9446 35.4347 29.962C35.4347 30.9795 36.1715 31.7162 37.1187 31.7162C37.61 31.7162 37.9608 31.5409 38.1713 31.2251V31.6461H38.9081V29.962ZM36.2066 29.962C36.2066 29.3656 36.5924 28.8745 37.224 28.8745C37.8205 28.8745 38.2415 29.3306 38.2415 29.962C38.2415 30.5585 37.8205 31.0496 37.224 31.0496C36.5924 31.0145 36.2066 30.5585 36.2066 29.962ZM11.5774 29.962V28.278H10.8407V28.699C10.595 28.3834 10.2442 28.2079 9.78811 28.2079C8.84087 28.2079 8.1041 28.9446 8.1041 29.962C8.1041 30.9795 8.84087 31.7162 9.78811 31.7162C10.2794 31.7162 10.6302 31.5409 10.8407 31.2251V31.6461H11.5774V29.962ZM8.84087 29.962C8.84087 29.3656 9.22683 28.8745 9.85827 28.8745C10.4547 28.8745 10.8758 29.3306 10.8758 29.962C10.8758 30.5585 10.4547 31.0496 9.85827 31.0496C9.22683 31.0145 8.84087 30.5585 8.84087 29.962Z" fill="black"/>
<path d="M14.9106 2.70154H25.9621V22.5592H14.9106V2.70154Z" fill="#FF5F00"/>
<path d="M15.6125 12.6303C15.6125 8.59569 17.507 5.01703 20.4189 2.70142C18.279 1.01741 15.5775 0 12.6305 0C5.64848 0 0 5.64848 0 12.6303C0 19.612 5.64848 25.2606 12.6303 25.2606C15.5774 25.2606 18.2788 24.2432 20.4189 22.5591C17.507 20.2786 15.6125 16.6649 15.6125 12.6303Z" fill="#EB001B"/>
<path d="M40.873 12.6303C40.873 19.612 35.2246 25.2606 28.2427 25.2606C25.2957 25.2606 22.5942 24.2432 20.4541 22.5591C23.4012 20.2436 25.2607 16.6649 25.2607 12.6303C25.2607 8.59569 23.366 5.01703 20.4541 2.70142C22.5941 1.01741 25.2957 0 28.2427 0C35.2246 0 40.873 5.68364 40.873 12.6303Z" fill="#F79E1B"/>
</g>
<defs>
<clipPath id="clip0_352_3574">
<rect width="40.9136" height="31.8039" fill="white"/>
</clipPath>
</defs>
</svg>
