<svg width="18" height="19" viewBox="0 0 18 19" fill="none" xmlns="http://www.w3.org/2000/svg">
<path fill-rule="evenodd" clip-rule="evenodd" d="M17.0509 8.55377V13.1492C17.0509 15.999 17.0509 17.4239 16.3753 18.0466C16.0531 18.3435 15.6464 18.5301 15.2131 18.5796C14.3047 18.6836 13.2438 17.7453 11.1221 15.8687C10.1843 15.0392 9.71535 14.6244 9.17281 14.5151C8.90565 14.4613 8.63061 14.4613 8.36345 14.5151C7.8209 14.6244 7.35198 15.0392 6.41413 15.8687C4.29242 17.7453 3.23157 18.6836 2.32313 18.5796C1.88988 18.5301 1.48316 18.3435 1.16096 18.0466C0.485352 17.4239 0.485352 15.999 0.485352 13.1492V8.55377C0.485352 4.60692 0.485352 2.6335 1.69834 1.40737C2.91132 0.181244 4.86359 0.181244 8.76813 0.181244C12.6727 0.181244 14.6249 0.181244 15.8379 1.40737C17.0509 2.6335 17.0509 4.60692 17.0509 8.55377ZM5.31697 3.86248C5.31697 3.48127 5.626 3.17225 6.0072 3.17225H11.5291C11.9103 3.17225 12.2193 3.48127 12.2193 3.86248C12.2193 4.24368 11.9103 4.55271 11.5291 4.55271H6.0072C5.626 4.55271 5.31697 4.24368 5.31697 3.86248Z" fill="#202020"/>
</svg>
