<svg width="314" height="182" viewBox="0 0 314 182" fill="none" xmlns="http://www.w3.org/2000/svg">
<g opacity="0.4" clip-path="url(#clip0_168_16174)">
<path d="M209.326 12.1297L88.1401 47.4382L91.35 58.4551L212.536 23.1466L209.326 12.1297Z" fill="#3F3D56"/>
<path d="M102.619 98.0428L84.7568 36.7374C84.6244 36.2829 84.6779 35.7944 84.9057 35.3794C85.1335 34.9644 85.5167 34.6568 85.9713 34.5244L204.219 0.0717328C204.674 -0.0602452 205.162 -0.00650248 205.577 0.22117C205.992 0.448843 206.3 0.831841 206.432 1.2861L222.257 55.5982L221.767 55.7409L205.943 1.42879C205.848 1.10445 205.628 0.831038 205.332 0.66844C205.035 0.505841 204.687 0.467315 204.362 0.561309L86.1139 35.014C85.7893 35.1086 85.5155 35.3282 85.3528 35.6247C85.1901 35.9212 85.1519 36.2701 85.2464 36.5948L103.108 97.9001L102.619 98.0428Z" fill="#3F3D56"/>
<path d="M196.084 55.8506C195.726 55.8502 195.377 55.7337 195.09 55.5184C194.803 55.3031 194.593 55.0007 194.492 54.6564L191.496 44.374C191.374 43.9519 191.424 43.4986 191.635 43.1133C191.847 42.7281 192.202 42.4424 192.624 42.319L202.907 39.3232C203.329 39.2007 203.782 39.2507 204.167 39.4621C204.552 39.6736 204.838 40.0292 204.961 40.451L207.957 50.7334C208.08 51.1554 208.03 51.6088 207.818 51.994C207.607 52.3793 207.251 52.6649 206.83 52.7884L196.547 55.7842C196.397 55.8282 196.241 55.8505 196.084 55.8506Z" fill="#383739"/>
<path d="M102.343 36.927C102.312 36.8214 102.275 36.7175 102.233 36.6159C101.945 35.9182 101.41 35.3512 100.73 35.0241C100.05 34.697 99.2729 34.6327 98.5483 34.8437C97.8237 35.0546 97.2026 35.5259 96.8044 36.167C96.4062 36.8081 96.2589 37.5737 96.3909 38.3168C96.4095 38.4252 96.4342 38.5325 96.4649 38.6381C96.6511 39.2737 97.0382 39.8319 97.5682 40.2291C98.0982 40.6262 98.7426 40.841 99.405 40.8413C99.6941 40.8419 99.9819 40.8007 100.259 40.7189C101.038 40.4914 101.694 39.9645 102.085 39.2537C102.475 38.5428 102.568 37.7061 102.343 36.927ZM100.116 40.2293C99.4672 40.4177 98.7697 40.341 98.177 40.0159C97.5843 39.6909 97.1446 39.144 96.9545 38.4953C96.9246 38.3896 96.9007 38.2824 96.883 38.174C96.7873 37.5618 96.918 36.9357 97.2504 36.4128C97.5829 35.8899 98.0945 35.506 98.6894 35.3328C99.2844 35.1597 99.9221 35.2092 100.483 35.4721C101.044 35.735 101.49 36.1933 101.738 36.7613C101.784 36.861 101.823 36.9642 101.853 37.0698C102.041 37.7191 101.964 38.4165 101.638 39.0089C101.313 39.6012 100.765 40.0402 100.116 40.2293Z" fill="#383739"/>
<path d="M94.8372 39.1124C94.674 38.552 94.6896 37.9546 94.882 37.4035C95.0743 36.8524 95.4338 36.375 95.9103 36.0379C95.4639 36.0161 95.0187 36.1013 94.6119 36.2865C94.2051 36.4716 93.8485 36.7512 93.5716 37.1021C93.2948 37.453 93.1058 37.8649 93.0204 38.3036C92.935 38.7423 92.9557 39.1951 93.0807 39.6242C93.2058 40.0533 93.4315 40.4463 93.7392 40.7705C94.0468 41.0947 94.4275 41.3406 94.8495 41.4879C95.2714 41.6352 95.7225 41.6795 96.1651 41.6171C96.6076 41.5548 97.0289 41.3876 97.3938 41.1294C96.8107 41.101 96.2511 40.8914 95.7929 40.5298C95.3346 40.1683 95.0005 39.6728 94.8372 39.1124Z" fill="#383739"/>
<path d="M174.107 51.7503C174.053 51.5552 173.96 51.3726 173.836 51.2132C173.711 51.0537 173.556 50.9204 173.379 50.8209C173.203 50.7215 173.008 50.6577 172.807 50.6334C172.606 50.6091 172.402 50.6247 172.207 50.6793L155.278 55.4146L153.455 55.9246H164.904L166.727 55.4146L173.039 53.65C173.432 53.5395 173.765 53.2774 173.966 52.9212C174.166 52.565 174.217 52.1439 174.107 51.7503Z" fill="#CCCCCC"/>
<path d="M162.13 48.2134C162.019 47.8198 161.757 47.4862 161.401 47.2858C161.045 47.0854 160.623 47.0348 160.23 47.1449L134.827 54.2492C134.472 54.3498 134.165 54.5739 133.96 54.8811C133.756 55.1883 133.668 55.5583 133.712 55.9246H140.289L142.115 55.4146L161.061 50.1157C161.455 50.0048 161.789 49.7422 161.989 49.3855C162.189 49.0289 162.24 48.6073 162.13 48.2134Z" fill="#CCCCCC"/>
<path d="M227.528 55.4141H104.363C103.89 55.4146 103.436 55.6028 103.102 55.9375C102.767 56.2721 102.579 56.7258 102.578 57.1991V130.129C102.579 130.602 102.767 131.056 103.102 131.391C103.436 131.725 103.89 131.914 104.363 131.914H227.528C228.001 131.914 228.455 131.725 228.79 131.391C229.124 131.056 229.313 130.602 229.313 130.129V57.1991C229.313 56.7258 229.124 56.2721 228.79 55.9375C228.455 55.6029 228.001 55.4146 227.528 55.4141ZM228.803 130.129C228.803 130.467 228.669 130.791 228.43 131.03C228.191 131.27 227.866 131.404 227.528 131.404H104.363C104.025 131.404 103.701 131.27 103.462 131.03C103.223 130.791 103.088 130.467 103.088 130.129V57.1991C103.088 56.861 103.223 56.5367 103.462 56.2977C103.701 56.0586 104.025 55.9242 104.363 55.9241H227.528C227.866 55.9242 228.191 56.0586 228.43 56.2977C228.669 56.5367 228.803 56.861 228.803 57.1991V130.129Z" fill="#3F3D56"/>
<path d="M116.347 65.3596C115.742 65.3596 115.15 65.1802 114.647 64.8439C114.144 64.5077 113.752 64.0298 113.52 63.4706C113.288 62.9115 113.228 62.2962 113.346 61.7027C113.464 61.1091 113.755 60.5638 114.183 60.1359C114.611 59.7079 115.157 59.4165 115.75 59.2984C116.344 59.1804 116.959 59.2409 117.518 59.4726C118.077 59.7042 118.555 60.0964 118.891 60.5996C119.228 61.1028 119.407 61.6944 119.407 62.2996C119.406 63.1109 119.083 63.8887 118.51 64.4623C117.936 65.036 117.158 65.3587 116.347 65.3596ZM116.347 59.7496C115.843 59.7496 115.35 59.8992 114.93 60.1794C114.511 60.4596 114.184 60.8578 113.991 61.3238C113.798 61.7897 113.748 62.3025 113.846 62.7971C113.945 63.2918 114.187 63.7461 114.544 64.1027C114.901 64.4594 115.355 64.7022 115.85 64.8006C116.344 64.899 116.857 64.8485 117.323 64.6555C117.789 64.4625 118.187 64.1357 118.467 63.7163C118.748 63.297 118.897 62.804 118.897 62.2996C118.896 61.6236 118.627 60.9754 118.149 60.4973C117.671 60.0193 117.023 59.7504 116.347 59.7496Z" fill="#383739"/>
<path d="M111.591 62.2996C111.591 61.7159 111.773 61.1468 112.112 60.6715C112.451 60.1962 112.929 59.8384 113.481 59.648C113.059 59.5022 112.607 59.4595 112.165 59.5235C111.723 59.5874 111.302 59.7561 110.938 60.0155C110.574 60.275 110.277 60.6176 110.073 61.0149C109.868 61.4122 109.761 61.8527 109.761 62.2996C109.761 62.7466 109.868 63.187 110.073 63.5843C110.277 63.9816 110.574 64.3243 110.938 64.5837C111.302 64.8431 111.723 65.0118 112.165 65.0758C112.607 65.1397 113.059 65.097 113.481 64.9513C112.929 64.7608 112.451 64.4031 112.112 63.9278C111.773 63.4525 111.591 62.8833 111.591 62.2996Z" fill="#383739"/>
<path d="M128.751 98.453C128.143 98.4523 127.559 98.2103 127.129 97.7801C126.699 97.3498 126.457 96.7665 126.456 96.158V89.273C126.456 88.6644 126.698 88.0806 127.128 87.6502C127.559 87.2198 128.142 86.978 128.751 86.978C129.36 86.978 129.943 87.2198 130.374 87.6502C130.804 88.0806 131.046 88.6644 131.046 89.273V96.158C131.045 96.7665 130.803 97.3498 130.373 97.7801C129.943 98.2103 129.36 98.4523 128.751 98.453Z" fill="#383739"/>
<path d="M134.871 98.453C134.263 98.4523 133.679 98.2103 133.249 97.7801C132.819 97.3498 132.577 96.7665 132.576 96.158V89.273C132.576 88.6644 132.818 88.0806 133.248 87.6502C133.679 87.2198 134.262 86.978 134.871 86.978C135.48 86.978 136.064 87.2198 136.494 87.6502C136.924 88.0806 137.166 88.6644 137.166 89.273V96.158C137.165 96.7665 136.923 97.3498 136.493 97.7801C136.063 98.2103 135.48 98.4523 134.871 98.453Z" fill="#383739"/>
<path d="M140.991 98.453C140.383 98.4523 139.8 98.2103 139.369 97.7801C138.939 97.3498 138.697 96.7665 138.696 96.158V89.273C138.696 88.6644 138.938 88.0806 139.368 87.6502C139.799 87.2198 140.383 86.978 140.991 86.978C141.6 86.978 142.184 87.2198 142.614 87.6502C143.044 88.0806 143.286 88.6644 143.286 89.273V96.158C143.286 96.7665 143.044 97.3498 142.613 97.7801C142.183 98.2103 141.6 98.4523 140.991 98.453Z" fill="#383739"/>
<path d="M150.426 98.453C149.818 98.4523 149.235 98.2103 148.804 97.7801C148.374 97.3498 148.132 96.7665 148.131 96.158V89.273C148.131 88.6644 148.373 88.0806 148.804 87.6502C149.234 87.2198 149.818 86.978 150.426 86.978C151.035 86.978 151.619 87.2198 152.049 87.6502C152.48 88.0806 152.721 88.6644 152.721 89.273V96.158C152.721 96.7665 152.479 97.3498 152.048 97.7801C151.618 98.2103 151.035 98.4523 150.426 98.453Z" fill="#383739"/>
<path d="M156.546 98.453C155.938 98.4523 155.354 98.2103 154.924 97.7801C154.494 97.3498 154.252 96.7665 154.251 96.158V89.273C154.251 88.6644 154.493 88.0806 154.923 87.6502C155.354 87.2198 155.937 86.978 156.546 86.978C157.155 86.978 157.738 87.2198 158.169 87.6502C158.599 88.0806 158.841 88.6644 158.841 89.273V96.158C158.84 96.7665 158.598 97.3498 158.168 97.7801C157.738 98.2103 157.154 98.4523 156.546 98.453Z" fill="#383739"/>
<path d="M162.666 98.453C162.058 98.4523 161.474 98.2103 161.044 97.7801C160.614 97.3498 160.372 96.7665 160.371 96.158V89.273C160.371 88.6644 160.613 88.0806 161.043 87.6502C161.474 87.2198 162.057 86.978 162.666 86.978C163.275 86.978 163.859 87.2198 164.289 87.6502C164.719 88.0806 164.961 88.6644 164.961 89.273V96.158C164.96 96.7665 164.718 97.3498 164.288 97.7801C163.858 98.2103 163.275 98.4523 162.666 98.453Z" fill="#383739"/>
<path d="M172.101 98.453C171.493 98.4523 170.909 98.2103 170.479 97.7801C170.049 97.3498 169.807 96.7665 169.806 96.158V89.273C169.806 88.6644 170.048 88.0806 170.478 87.6502C170.909 87.2198 171.492 86.978 172.101 86.978C172.71 86.978 173.294 87.2198 173.724 87.6502C174.154 88.0806 174.396 88.6644 174.396 89.273V96.158C174.395 96.7665 174.153 97.3498 173.723 97.7801C173.293 98.2103 172.71 98.4523 172.101 98.453Z" fill="#383739"/>
<path d="M178.221 98.453C177.613 98.4523 177.029 98.2103 176.599 97.7801C176.169 97.3498 175.927 96.7665 175.926 96.158V89.273C175.926 88.6644 176.168 88.0806 176.598 87.6502C177.029 87.2198 177.613 86.978 178.221 86.978C178.83 86.978 179.414 87.2198 179.844 87.6502C180.274 88.0806 180.516 88.6644 180.516 89.273V96.158C180.516 96.7665 180.274 97.3498 179.843 97.7801C179.413 98.2103 178.83 98.4523 178.221 98.453Z" fill="#383739"/>
<path d="M184.341 98.453C183.733 98.4523 183.15 98.2103 182.719 97.7801C182.289 97.3498 182.047 96.7665 182.046 96.158V89.273C182.046 88.6644 182.288 88.0806 182.719 87.6502C183.149 87.2198 183.733 86.978 184.341 86.978C184.95 86.978 185.534 87.2198 185.964 87.6502C186.395 88.0806 186.636 88.6644 186.636 89.273V96.158C186.636 96.7665 186.394 97.3498 185.963 97.7801C185.533 98.2103 184.95 98.4523 184.341 98.453Z" fill="#383739"/>
<path d="M193.776 98.453C193.167 98.4523 192.584 98.2103 192.154 97.7801C191.724 97.3498 191.482 96.7665 191.481 96.158V89.273C191.481 88.6644 191.723 88.0806 192.153 87.6502C192.584 87.2198 193.167 86.978 193.776 86.978C194.385 86.978 194.968 87.2198 195.399 87.6502C195.829 88.0806 196.071 88.6644 196.071 89.273V96.158C196.07 96.7665 195.828 97.3498 195.398 97.7801C194.968 98.2103 194.384 98.4523 193.776 98.453Z" fill="#383739"/>
<path d="M199.896 98.453C199.288 98.4523 198.704 98.2103 198.274 97.7801C197.844 97.3498 197.602 96.7665 197.601 96.158V89.273C197.601 88.6644 197.843 88.0806 198.273 87.6502C198.704 87.2198 199.287 86.978 199.896 86.978C200.505 86.978 201.088 87.2198 201.519 87.6502C201.949 88.0806 202.191 88.6644 202.191 89.273V96.158C202.19 96.7665 201.948 97.3498 201.518 97.7801C201.088 98.2103 200.505 98.4523 199.896 98.453Z" fill="#383739"/>
<path d="M206.016 98.453C205.408 98.4523 204.824 98.2103 204.394 97.7801C203.964 97.3498 203.722 96.7665 203.721 96.158V89.273C203.721 88.6644 203.963 88.0806 204.393 87.6502C204.824 87.2198 205.408 86.978 206.016 86.978C206.625 86.978 207.209 87.2198 207.639 87.6502C208.069 88.0806 208.311 88.6644 208.311 89.273V96.158C208.31 96.7665 208.068 97.3498 207.638 97.7801C207.208 98.2103 206.625 98.4523 206.016 98.453Z" fill="#383739"/>
<path d="M144.311 123.996H111.303C110.894 123.996 110.502 123.833 110.213 123.544C109.924 123.255 109.761 122.862 109.761 122.453C109.761 122.044 109.924 121.652 110.213 121.363C110.502 121.074 110.894 120.911 111.303 120.911H144.311C144.72 120.911 145.112 121.074 145.401 121.363C145.69 121.652 145.853 122.044 145.853 122.453C145.853 122.862 145.69 123.255 145.401 123.544C145.112 123.833 144.72 123.996 144.311 123.996Z" fill="#E6E6E6"/>
<path d="M133.728 117.366H121.886C121.477 117.366 121.085 117.203 120.795 116.914C120.506 116.625 120.344 116.232 120.344 115.823C120.344 115.414 120.506 115.022 120.795 114.733C121.085 114.444 121.477 114.281 121.886 114.281H133.728C134.137 114.281 134.529 114.444 134.819 114.733C135.108 115.022 135.27 115.414 135.27 115.823C135.27 116.232 135.108 116.625 134.819 116.914C134.529 117.203 134.137 117.366 133.728 117.366Z" fill="#E6E6E6"/>
<path d="M228.711 70.658H102.996V71.168H228.711V70.658Z" fill="#3F3D56"/>
</g>
<path d="M29.9446 145.086L26.4586 154.914H23.4626L19.9766 145.086H22.5246L24.9606 152.506L27.4106 145.086H29.9446ZM34.5011 155.026C33.7358 155.026 33.0451 154.863 32.4291 154.536C31.8225 154.209 31.3418 153.743 30.9871 153.136C30.6418 152.529 30.4691 151.82 30.4691 151.008C30.4691 150.205 30.6465 149.501 31.0011 148.894C31.3558 148.278 31.8411 147.807 32.4571 147.48C33.0731 147.153 33.7638 146.99 34.5291 146.99C35.2945 146.99 35.9851 147.153 36.6011 147.48C37.2171 147.807 37.7025 148.278 38.0571 148.894C38.4118 149.501 38.5891 150.205 38.5891 151.008C38.5891 151.811 38.4071 152.52 38.0431 153.136C37.6885 153.743 37.1985 154.209 36.5731 154.536C35.9571 154.863 35.2665 155.026 34.5011 155.026ZM34.5011 152.954C34.9585 152.954 35.3458 152.786 35.6631 152.45C35.9898 152.114 36.1531 151.633 36.1531 151.008C36.1531 150.383 35.9945 149.902 35.6771 149.566C35.3691 149.23 34.9865 149.062 34.5291 149.062C34.0625 149.062 33.6751 149.23 33.3671 149.566C33.0591 149.893 32.9051 150.373 32.9051 151.008C32.9051 151.633 33.0545 152.114 33.3531 152.45C33.6611 152.786 34.0438 152.954 34.5011 152.954ZM47.5732 147.102V154.914H45.1792V153.85C44.9365 154.195 44.6052 154.475 44.1852 154.69C43.7745 154.895 43.3172 154.998 42.8132 154.998C42.2159 154.998 41.6885 154.867 41.2312 154.606C40.7739 154.335 40.4192 153.948 40.1672 153.444C39.9152 152.94 39.7892 152.347 39.7892 151.666V147.102H42.1692V151.344C42.1692 151.867 42.3045 152.273 42.5752 152.562C42.8459 152.851 43.2099 152.996 43.6672 152.996C44.1339 152.996 44.5025 152.851 44.7732 152.562C45.0439 152.273 45.1792 151.867 45.1792 151.344V147.102H47.5732ZM52.4708 155.026C51.7895 155.026 51.1828 154.909 50.6508 154.676C50.1188 154.443 49.6988 154.125 49.3908 153.724C49.0828 153.313 48.9101 152.856 48.8728 152.352H51.2388C51.2668 152.623 51.3928 152.842 51.6168 153.01C51.8408 153.178 52.1161 153.262 52.4428 153.262C52.7415 153.262 52.9701 153.206 53.1288 153.094C53.2968 152.973 53.3808 152.819 53.3808 152.632C53.3808 152.408 53.2641 152.245 53.0308 152.142C52.7975 152.03 52.4195 151.909 51.8968 151.778C51.3368 151.647 50.8701 151.512 50.4968 151.372C50.1235 151.223 49.8015 150.994 49.5308 150.686C49.2601 150.369 49.1248 149.944 49.1248 149.412C49.1248 148.964 49.2461 148.558 49.4888 148.194C49.7408 147.821 50.1048 147.527 50.5808 147.312C51.0661 147.097 51.6401 146.99 52.3028 146.99C53.2828 146.99 54.0528 147.233 54.6128 147.718C55.1821 148.203 55.5088 148.847 55.5928 149.65H53.3808C53.3435 149.379 53.2221 149.165 53.0168 149.006C52.8208 148.847 52.5595 148.768 52.2328 148.768C51.9528 148.768 51.7381 148.824 51.5888 148.936C51.4395 149.039 51.3648 149.183 51.3648 149.37C51.3648 149.594 51.4815 149.762 51.7148 149.874C51.9575 149.986 52.3308 150.098 52.8348 150.21C53.4135 150.359 53.8848 150.509 54.2488 150.658C54.6128 150.798 54.9301 151.031 55.2008 151.358C55.4808 151.675 55.6255 152.105 55.6348 152.646C55.6348 153.103 55.5041 153.514 55.2428 153.878C54.9908 154.233 54.6221 154.513 54.1368 154.718C53.6608 154.923 53.1055 155.026 52.4708 155.026ZM64.8262 147.018C65.7409 147.018 66.4689 147.317 67.0102 147.914C67.5609 148.502 67.8362 149.314 67.8362 150.35V154.914H65.4562V150.672C65.4562 150.149 65.3209 149.743 65.0502 149.454C64.7796 149.165 64.4156 149.02 63.9582 149.02C63.5009 149.02 63.1369 149.165 62.8662 149.454C62.5956 149.743 62.4602 150.149 62.4602 150.672V154.914H60.0662V147.102H62.4602V148.138C62.7029 147.793 63.0296 147.522 63.4402 147.326C63.8509 147.121 64.3129 147.018 64.8262 147.018ZM70.0458 145.086H72.4958L70.9278 148.838H69.3178L70.0458 145.086ZM73.4262 150.994C73.4262 150.191 73.5755 149.487 73.8742 148.88C74.1822 148.273 74.5975 147.807 75.1202 147.48C75.6428 147.153 76.2262 146.99 76.8702 146.99C77.4208 146.99 77.9015 147.102 78.3122 147.326C78.7322 147.55 79.0542 147.844 79.2782 148.208V147.102H81.6722V154.914H79.2782V153.808C79.0448 154.172 78.7182 154.466 78.2982 154.69C77.8875 154.914 77.4068 155.026 76.8562 155.026C76.2215 155.026 75.6428 154.863 75.1202 154.536C74.5975 154.2 74.1822 153.729 73.8742 153.122C73.5755 152.506 73.4262 151.797 73.4262 150.994ZM79.2782 151.008C79.2782 150.411 79.1102 149.939 78.7742 149.594C78.4475 149.249 78.0462 149.076 77.5702 149.076C77.0942 149.076 76.6882 149.249 76.3522 149.594C76.0255 149.93 75.8622 150.397 75.8622 150.994C75.8622 151.591 76.0255 152.067 76.3522 152.422C76.6882 152.767 77.0942 152.94 77.5702 152.94C78.0462 152.94 78.4475 152.767 78.7742 152.422C79.1102 152.077 79.2782 151.605 79.2782 151.008ZM86.9181 152.674L88.6121 147.102H91.1601L88.3881 154.914H85.4341L82.6621 147.102H85.2241L86.9181 152.674ZM99.5318 150.882C99.5318 151.106 99.5178 151.339 99.4898 151.582H94.0718C94.1091 152.067 94.2631 152.441 94.5338 152.702C94.8138 152.954 95.1545 153.08 95.5558 153.08C96.1531 153.08 96.5685 152.828 96.8018 152.324H99.3498C99.2191 152.837 98.9811 153.299 98.6358 153.71C98.2998 154.121 97.8751 154.443 97.3618 154.676C96.8485 154.909 96.2745 155.026 95.6398 155.026C94.8745 155.026 94.1931 154.863 93.5958 154.536C92.9985 154.209 92.5318 153.743 92.1958 153.136C91.8598 152.529 91.6918 151.82 91.6918 151.008C91.6918 150.196 91.8551 149.487 92.1818 148.88C92.5178 148.273 92.9845 147.807 93.5818 147.48C94.1791 147.153 94.8651 146.99 95.6398 146.99C96.3958 146.99 97.0678 147.149 97.6558 147.466C98.2438 147.783 98.7011 148.236 99.0278 148.824C99.3638 149.412 99.5318 150.098 99.5318 150.882ZM97.0818 150.252C97.0818 149.841 96.9418 149.515 96.6618 149.272C96.3818 149.029 96.0318 148.908 95.6118 148.908C95.2105 148.908 94.8698 149.025 94.5898 149.258C94.3191 149.491 94.1511 149.823 94.0858 150.252H97.0818ZM103.035 152.94H106.423V154.914H100.361V153.01L103.609 149.076H100.389V147.102H106.353V149.006L103.035 152.94ZM113.101 148.208C113.334 147.844 113.656 147.55 114.067 147.326C114.478 147.102 114.958 146.99 115.509 146.99C116.153 146.99 116.736 147.153 117.259 147.48C117.782 147.807 118.192 148.273 118.491 148.88C118.799 149.487 118.953 150.191 118.953 150.994C118.953 151.797 118.799 152.506 118.491 153.122C118.192 153.729 117.782 154.2 117.259 154.536C116.736 154.863 116.153 155.026 115.509 155.026C114.968 155.026 114.487 154.914 114.067 154.69C113.656 154.466 113.334 154.177 113.101 153.822V158.638H110.707V147.102H113.101V148.208ZM116.517 150.994C116.517 150.397 116.349 149.93 116.013 149.594C115.686 149.249 115.28 149.076 114.795 149.076C114.319 149.076 113.913 149.249 113.577 149.594C113.25 149.939 113.087 150.411 113.087 151.008C113.087 151.605 113.25 152.077 113.577 152.422C113.913 152.767 114.319 152.94 114.795 152.94C115.271 152.94 115.677 152.767 116.013 152.422C116.349 152.067 116.517 151.591 116.517 150.994ZM119.733 150.994C119.733 150.191 119.882 149.487 120.181 148.88C120.489 148.273 120.904 147.807 121.427 147.48C121.949 147.153 122.533 146.99 123.177 146.99C123.727 146.99 124.208 147.102 124.619 147.326C125.039 147.55 125.361 147.844 125.585 148.208V147.102H127.979V154.914H125.585V153.808C125.351 154.172 125.025 154.466 124.605 154.69C124.194 154.914 123.713 155.026 123.163 155.026C122.528 155.026 121.949 154.863 121.427 154.536C120.904 154.2 120.489 153.729 120.181 153.122C119.882 152.506 119.733 151.797 119.733 150.994ZM125.585 151.008C125.585 150.411 125.417 149.939 125.081 149.594C124.754 149.249 124.353 149.076 123.877 149.076C123.401 149.076 122.995 149.249 122.659 149.594C122.332 149.93 122.169 150.397 122.169 150.994C122.169 151.591 122.332 152.067 122.659 152.422C122.995 152.767 123.401 152.94 123.877 152.94C124.353 152.94 124.754 152.767 125.081 152.422C125.417 152.077 125.585 151.605 125.585 151.008ZM132.889 155.026C132.207 155.026 131.601 154.909 131.069 154.676C130.537 154.443 130.117 154.125 129.809 153.724C129.501 153.313 129.328 152.856 129.291 152.352H131.657C131.685 152.623 131.811 152.842 132.035 153.01C132.259 153.178 132.534 153.262 132.861 153.262C133.159 153.262 133.388 153.206 133.547 153.094C133.715 152.973 133.799 152.819 133.799 152.632C133.799 152.408 133.682 152.245 133.449 152.142C133.215 152.03 132.837 151.909 132.315 151.778C131.755 151.647 131.288 151.512 130.915 151.372C130.541 151.223 130.219 150.994 129.949 150.686C129.678 150.369 129.543 149.944 129.543 149.412C129.543 148.964 129.664 148.558 129.907 148.194C130.159 147.821 130.523 147.527 130.999 147.312C131.484 147.097 132.058 146.99 132.721 146.99C133.701 146.99 134.471 147.233 135.031 147.718C135.6 148.203 135.927 148.847 136.011 149.65H133.799C133.761 149.379 133.64 149.165 133.435 149.006C133.239 148.847 132.977 148.768 132.651 148.768C132.371 148.768 132.156 148.824 132.007 148.936C131.857 149.039 131.783 149.183 131.783 149.37C131.783 149.594 131.899 149.762 132.133 149.874C132.375 149.986 132.749 150.098 133.253 150.21C133.831 150.359 134.303 150.509 134.667 150.658C135.031 150.798 135.348 151.031 135.619 151.358C135.899 151.675 136.043 152.105 136.053 152.646C136.053 153.103 135.922 153.514 135.661 153.878C135.409 154.233 135.04 154.513 134.555 154.718C134.079 154.923 133.523 155.026 132.889 155.026ZM147.848 150.882C147.848 151.106 147.834 151.339 147.806 151.582H142.388C142.426 152.067 142.58 152.441 142.85 152.702C143.13 152.954 143.471 153.08 143.872 153.08C144.47 153.08 144.885 152.828 145.118 152.324H147.666C147.536 152.837 147.298 153.299 146.952 153.71C146.616 154.121 146.192 154.443 145.678 154.676C145.165 154.909 144.591 155.026 143.956 155.026C143.191 155.026 142.51 154.863 141.912 154.536C141.315 154.209 140.848 153.743 140.512 153.136C140.176 152.529 140.008 151.82 140.008 151.008C140.008 150.196 140.172 149.487 140.498 148.88C140.834 148.273 141.301 147.807 141.898 147.48C142.496 147.153 143.182 146.99 143.956 146.99C144.712 146.99 145.384 147.149 145.972 147.466C146.56 147.783 147.018 148.236 147.344 148.824C147.68 149.412 147.848 150.098 147.848 150.882ZM145.398 150.252C145.398 149.841 145.258 149.515 144.978 149.272C144.698 149.029 144.348 148.908 143.928 148.908C143.527 148.908 143.186 149.025 142.906 149.258C142.636 149.491 142.468 149.823 142.402 150.252H145.398ZM153.871 147.018C154.786 147.018 155.514 147.317 156.055 147.914C156.606 148.502 156.881 149.314 156.881 150.35V154.914H154.501V150.672C154.501 150.149 154.366 149.743 154.095 149.454C153.824 149.165 153.46 149.02 153.003 149.02C152.546 149.02 152.182 149.165 151.911 149.454C151.64 149.743 151.505 150.149 151.505 150.672V154.914H149.111V147.102H151.505V148.138C151.748 147.793 152.074 147.522 152.485 147.326C152.896 147.121 153.358 147.018 153.871 147.018ZM158.069 151.008C158.069 150.196 158.232 149.487 158.559 148.88C158.895 148.273 159.357 147.807 159.945 147.48C160.542 147.153 161.223 146.99 161.989 146.99C162.969 146.99 163.785 147.247 164.439 147.76C165.101 148.273 165.535 148.997 165.741 149.93H163.193C162.978 149.333 162.563 149.034 161.947 149.034C161.508 149.034 161.158 149.207 160.897 149.552C160.635 149.888 160.505 150.373 160.505 151.008C160.505 151.643 160.635 152.133 160.897 152.478C161.158 152.814 161.508 152.982 161.947 152.982C162.563 152.982 162.978 152.683 163.193 152.086H165.741C165.535 153.001 165.101 153.719 164.439 154.242C163.776 154.765 162.959 155.026 161.989 155.026C161.223 155.026 160.542 154.863 159.945 154.536C159.357 154.209 158.895 153.743 158.559 153.136C158.232 152.529 158.069 151.82 158.069 151.008ZM170.577 155.026C169.812 155.026 169.121 154.863 168.505 154.536C167.899 154.209 167.418 153.743 167.063 153.136C166.718 152.529 166.545 151.82 166.545 151.008C166.545 150.205 166.723 149.501 167.077 148.894C167.432 148.278 167.917 147.807 168.533 147.48C169.149 147.153 169.84 146.99 170.605 146.99C171.371 146.99 172.061 147.153 172.677 147.48C173.293 147.807 173.779 148.278 174.133 148.894C174.488 149.501 174.665 150.205 174.665 151.008C174.665 151.811 174.483 152.52 174.119 153.136C173.765 153.743 173.275 154.209 172.649 154.536C172.033 154.863 171.343 155.026 170.577 155.026ZM170.577 152.954C171.035 152.954 171.422 152.786 171.739 152.45C172.066 152.114 172.229 151.633 172.229 151.008C172.229 150.383 172.071 149.902 171.753 149.566C171.445 149.23 171.063 149.062 170.605 149.062C170.139 149.062 169.751 149.23 169.443 149.566C169.135 149.893 168.981 150.373 168.981 151.008C168.981 151.633 169.131 152.114 169.429 152.45C169.737 152.786 170.12 152.954 170.577 152.954ZM178.329 148.404C178.609 147.975 178.959 147.639 179.379 147.396C179.799 147.144 180.266 147.018 180.779 147.018V149.552H180.121C179.524 149.552 179.076 149.683 178.777 149.944C178.479 150.196 178.329 150.644 178.329 151.288V154.914H175.935V147.102H178.329V148.404ZM189.288 150.882C189.288 151.106 189.274 151.339 189.246 151.582H183.828C183.865 152.067 184.019 152.441 184.29 152.702C184.57 152.954 184.91 153.08 185.312 153.08C185.909 153.08 186.324 152.828 186.558 152.324H189.106C188.975 152.837 188.737 153.299 188.392 153.71C188.056 154.121 187.631 154.443 187.118 154.676C186.604 154.909 186.03 155.026 185.396 155.026C184.63 155.026 183.949 154.863 183.352 154.536C182.754 154.209 182.288 153.743 181.952 153.136C181.616 152.529 181.448 151.82 181.448 151.008C181.448 150.196 181.611 149.487 181.938 148.88C182.274 148.273 182.74 147.807 183.338 147.48C183.935 147.153 184.621 146.99 185.396 146.99C186.152 146.99 186.824 147.149 187.412 147.466C188 147.783 188.457 148.236 188.784 148.824C189.12 149.412 189.288 150.098 189.288 150.882ZM186.838 150.252C186.838 149.841 186.698 149.515 186.418 149.272C186.138 149.029 185.788 148.908 185.368 148.908C184.966 148.908 184.626 149.025 184.346 149.258C184.075 149.491 183.907 149.823 183.842 150.252H186.838ZM200.881 150.882C200.881 151.106 200.867 151.339 200.839 151.582H195.421C195.459 152.067 195.613 152.441 195.883 152.702C196.163 152.954 196.504 153.08 196.905 153.08C197.503 153.08 197.918 152.828 198.151 152.324H200.699C200.569 152.837 200.331 153.299 199.985 153.71C199.649 154.121 199.225 154.443 198.711 154.676C198.198 154.909 197.624 155.026 196.989 155.026C196.224 155.026 195.543 154.863 194.945 154.536C194.348 154.209 193.881 153.743 193.545 153.136C193.209 152.529 193.041 151.82 193.041 151.008C193.041 150.196 193.205 149.487 193.531 148.88C193.867 148.273 194.334 147.807 194.931 147.48C195.529 147.153 196.215 146.99 196.989 146.99C197.745 146.99 198.417 147.149 199.005 147.466C199.593 147.783 200.051 148.236 200.377 148.824C200.713 149.412 200.881 150.098 200.881 150.882ZM198.431 150.252C198.431 149.841 198.291 149.515 198.011 149.272C197.731 149.029 197.381 148.908 196.961 148.908C196.56 148.908 196.219 149.025 195.939 149.258C195.669 149.491 195.501 149.823 195.435 150.252H198.431ZM206.904 147.018C207.819 147.018 208.547 147.317 209.088 147.914C209.639 148.502 209.914 149.314 209.914 150.35V154.914H207.534V150.672C207.534 150.149 207.399 149.743 207.128 149.454C206.858 149.165 206.494 149.02 206.036 149.02C205.579 149.02 205.215 149.165 204.944 149.454C204.674 149.743 204.538 150.149 204.538 150.672V154.914H202.144V147.102H204.538V148.138C204.781 147.793 205.108 147.522 205.518 147.326C205.929 147.121 206.391 147.018 206.904 147.018ZM213.972 148.404C214.252 147.975 214.602 147.639 215.022 147.396C215.442 147.144 215.909 147.018 216.422 147.018V149.552H215.764C215.167 149.552 214.719 149.683 214.42 149.944C214.121 150.196 213.972 150.644 213.972 151.288V154.914H211.578V147.102H213.972V148.404ZM224.93 150.882C224.93 151.106 224.916 151.339 224.888 151.582H219.47C219.508 152.067 219.662 152.441 219.932 152.702C220.212 152.954 220.553 153.08 220.954 153.08C221.552 153.08 221.967 152.828 222.2 152.324H224.748C224.618 152.837 224.38 153.299 224.034 153.71C223.698 154.121 223.274 154.443 222.76 154.676C222.247 154.909 221.673 155.026 221.038 155.026C220.273 155.026 219.592 154.863 218.994 154.536C218.397 154.209 217.93 153.743 217.594 153.136C217.258 152.529 217.09 151.82 217.09 151.008C217.09 150.196 217.254 149.487 217.58 148.88C217.916 148.273 218.383 147.807 218.98 147.48C219.578 147.153 220.264 146.99 221.038 146.99C221.794 146.99 222.466 147.149 223.054 147.466C223.642 147.783 224.1 148.236 224.426 148.824C224.762 149.412 224.93 150.098 224.93 150.882ZM222.48 150.252C222.48 149.841 222.34 149.515 222.06 149.272C221.78 149.029 221.43 148.908 221.01 148.908C220.609 148.908 220.268 149.025 219.988 149.258C219.718 149.491 219.55 149.823 219.484 150.252H222.48ZM229.161 146.99C229.712 146.99 230.193 147.102 230.603 147.326C231.023 147.55 231.345 147.844 231.569 148.208V147.102H233.963V154.9C233.963 155.619 233.819 156.267 233.529 156.846C233.249 157.434 232.815 157.901 232.227 158.246C231.649 158.591 230.925 158.764 230.057 158.764C228.9 158.764 227.962 158.489 227.243 157.938C226.525 157.397 226.114 156.659 226.011 155.726H228.377C228.452 156.025 228.629 156.258 228.909 156.426C229.189 156.603 229.535 156.692 229.945 156.692C230.44 156.692 230.832 156.547 231.121 156.258C231.42 155.978 231.569 155.525 231.569 154.9V153.794C231.336 154.158 231.014 154.457 230.603 154.69C230.193 154.914 229.712 155.026 229.161 155.026C228.517 155.026 227.934 154.863 227.411 154.536C226.889 154.2 226.473 153.729 226.165 153.122C225.867 152.506 225.717 151.797 225.717 150.994C225.717 150.191 225.867 149.487 226.165 148.88C226.473 148.273 226.889 147.807 227.411 147.48C227.934 147.153 228.517 146.99 229.161 146.99ZM231.569 151.008C231.569 150.411 231.401 149.939 231.065 149.594C230.739 149.249 230.337 149.076 229.861 149.076C229.385 149.076 228.979 149.249 228.643 149.594C228.317 149.93 228.153 150.397 228.153 150.994C228.153 151.591 228.317 152.067 228.643 152.422C228.979 152.767 229.385 152.94 229.861 152.94C230.337 152.94 230.739 152.767 231.065 152.422C231.401 152.077 231.569 151.605 231.569 151.008ZM236.899 146.29C236.479 146.29 236.134 146.169 235.863 145.926C235.602 145.674 235.471 145.366 235.471 145.002C235.471 144.629 235.602 144.321 235.863 144.078C236.134 143.826 236.479 143.7 236.899 143.7C237.31 143.7 237.646 143.826 237.907 144.078C238.178 144.321 238.313 144.629 238.313 145.002C238.313 145.366 238.178 145.674 237.907 145.926C237.646 146.169 237.31 146.29 236.899 146.29ZM238.089 147.102V154.914H235.695V147.102H238.089ZM243.002 155.026C242.321 155.026 241.714 154.909 241.182 154.676C240.65 154.443 240.23 154.125 239.922 153.724C239.614 153.313 239.441 152.856 239.404 152.352H241.77C241.798 152.623 241.924 152.842 242.148 153.01C242.372 153.178 242.647 153.262 242.974 153.262C243.273 153.262 243.501 153.206 243.66 153.094C243.828 152.973 243.912 152.819 243.912 152.632C243.912 152.408 243.795 152.245 243.562 152.142C243.329 152.03 242.951 151.909 242.428 151.778C241.868 151.647 241.401 151.512 241.028 151.372C240.655 151.223 240.333 150.994 240.062 150.686C239.791 150.369 239.656 149.944 239.656 149.412C239.656 148.964 239.777 148.558 240.02 148.194C240.272 147.821 240.636 147.527 241.112 147.312C241.597 147.097 242.171 146.99 242.834 146.99C243.814 146.99 244.584 147.233 245.144 147.718C245.713 148.203 246.04 148.847 246.124 149.65H243.912C243.875 149.379 243.753 149.165 243.548 149.006C243.352 148.847 243.091 148.768 242.764 148.768C242.484 148.768 242.269 148.824 242.12 148.936C241.971 149.039 241.896 149.183 241.896 149.37C241.896 149.594 242.013 149.762 242.246 149.874C242.489 149.986 242.862 150.098 243.366 150.21C243.945 150.359 244.416 150.509 244.78 150.658C245.144 150.798 245.461 151.031 245.732 151.358C246.012 151.675 246.157 152.105 246.166 152.646C246.166 153.103 246.035 153.514 245.774 153.878C245.522 154.233 245.153 154.513 244.668 154.718C244.192 154.923 243.637 155.026 243.002 155.026ZM251.985 152.884V154.914H250.767C249.899 154.914 249.222 154.704 248.737 154.284C248.251 153.855 248.009 153.159 248.009 152.198V149.09H247.057V147.102H248.009V145.198H250.403V147.102H251.971V149.09H250.403V152.226C250.403 152.459 250.459 152.627 250.571 152.73C250.683 152.833 250.869 152.884 251.131 152.884H251.985ZM255.712 148.404C255.992 147.975 256.342 147.639 256.762 147.396C257.182 147.144 257.649 147.018 258.162 147.018V149.552H257.504C256.907 149.552 256.459 149.683 256.16 149.944C255.862 150.196 255.712 150.644 255.712 151.288V154.914H253.318V147.102H255.712V148.404ZM266.67 150.882C266.67 151.106 266.656 151.339 266.628 151.582H261.21C261.248 152.067 261.402 152.441 261.672 152.702C261.952 152.954 262.293 153.08 262.694 153.08C263.292 153.08 263.707 152.828 263.94 152.324H266.488C266.358 152.837 266.12 153.299 265.774 153.71C265.438 154.121 265.014 154.443 264.5 154.676C263.987 154.909 263.413 155.026 262.778 155.026C262.013 155.026 261.332 154.863 260.734 154.536C260.137 154.209 259.67 153.743 259.334 153.136C258.998 152.529 258.83 151.82 258.83 151.008C258.83 150.196 258.994 149.487 259.32 148.88C259.656 148.273 260.123 147.807 260.72 147.48C261.318 147.153 262.004 146.99 262.778 146.99C263.534 146.99 264.206 147.149 264.794 147.466C265.382 147.783 265.84 148.236 266.166 148.824C266.502 149.412 266.67 150.098 266.67 150.882ZM264.22 150.252C264.22 149.841 264.08 149.515 263.8 149.272C263.52 149.029 263.17 148.908 262.75 148.908C262.349 148.908 262.008 149.025 261.728 149.258C261.458 149.491 261.29 149.823 261.224 150.252H264.22ZM270.327 148.404C270.607 147.975 270.957 147.639 271.377 147.396C271.797 147.144 272.264 147.018 272.777 147.018V149.552H272.119C271.522 149.552 271.074 149.683 270.775 149.944C270.477 150.196 270.327 150.644 270.327 151.288V154.914H267.933V147.102H270.327V148.404ZM276.413 150.994C276.413 150.191 276.562 149.487 276.861 148.88C277.169 148.273 277.584 147.807 278.107 147.48C278.629 147.153 279.213 146.99 279.857 146.99C280.37 146.99 280.837 147.097 281.257 147.312C281.686 147.527 282.022 147.816 282.265 148.18V144.554H284.659V154.914H282.265V153.794C282.041 154.167 281.719 154.466 281.299 154.69C280.888 154.914 280.407 155.026 279.857 155.026C279.213 155.026 278.629 154.863 278.107 154.536C277.584 154.2 277.169 153.729 276.861 153.122C276.562 152.506 276.413 151.797 276.413 150.994ZM282.265 151.008C282.265 150.411 282.097 149.939 281.761 149.594C281.434 149.249 281.033 149.076 280.557 149.076C280.081 149.076 279.675 149.249 279.339 149.594C279.012 149.93 278.849 150.397 278.849 150.994C278.849 151.591 279.012 152.067 279.339 152.422C279.675 152.767 280.081 152.94 280.557 152.94C281.033 152.94 281.434 152.767 281.761 152.422C282.097 152.077 282.265 151.605 282.265 151.008ZM293.754 150.882C293.754 151.106 293.74 151.339 293.712 151.582H288.294C288.332 152.067 288.486 152.441 288.756 152.702C289.036 152.954 289.377 153.08 289.778 153.08C290.376 153.08 290.791 152.828 291.024 152.324H293.572C293.442 152.837 293.204 153.299 292.858 153.71C292.522 154.121 292.098 154.443 291.584 154.676C291.071 154.909 290.497 155.026 289.862 155.026C289.097 155.026 288.416 154.863 287.818 154.536C287.221 154.209 286.754 153.743 286.418 153.136C286.082 152.529 285.914 151.82 285.914 151.008C285.914 150.196 286.078 149.487 286.404 148.88C286.74 148.273 287.207 147.807 287.804 147.48C288.402 147.153 289.088 146.99 289.862 146.99C290.618 146.99 291.29 147.149 291.878 147.466C292.466 147.783 292.924 148.236 293.25 148.824C293.586 149.412 293.754 150.098 293.754 150.882ZM291.304 150.252C291.304 149.841 291.164 149.515 290.884 149.272C290.604 149.029 290.254 148.908 289.834 148.908C289.433 148.908 289.092 149.025 288.812 149.258C288.542 149.491 288.374 149.823 288.308 150.252H291.304ZM138.251 172.008C138.251 171.196 138.415 170.487 138.741 169.88C139.077 169.273 139.539 168.807 140.127 168.48C140.725 168.153 141.406 167.99 142.171 167.99C143.151 167.99 143.968 168.247 144.621 168.76C145.284 169.273 145.718 169.997 145.923 170.93H143.375C143.161 170.333 142.745 170.034 142.129 170.034C141.691 170.034 141.341 170.207 141.079 170.552C140.818 170.888 140.687 171.373 140.687 172.008C140.687 172.643 140.818 173.133 141.079 173.478C141.341 173.814 141.691 173.982 142.129 173.982C142.745 173.982 143.161 173.683 143.375 173.086H145.923C145.718 174.001 145.284 174.719 144.621 175.242C143.959 175.765 143.142 176.026 142.171 176.026C141.406 176.026 140.725 175.863 140.127 175.536C139.539 175.209 139.077 174.743 138.741 174.136C138.415 173.529 138.251 172.82 138.251 172.008ZM146.728 171.994C146.728 171.191 146.877 170.487 147.176 169.88C147.484 169.273 147.899 168.807 148.422 168.48C148.945 168.153 149.528 167.99 150.172 167.99C150.723 167.99 151.203 168.102 151.614 168.326C152.034 168.55 152.356 168.844 152.58 169.208V168.102H154.974V175.914H152.58V174.808C152.347 175.172 152.02 175.466 151.6 175.69C151.189 175.914 150.709 176.026 150.158 176.026C149.523 176.026 148.945 175.863 148.422 175.536C147.899 175.2 147.484 174.729 147.176 174.122C146.877 173.506 146.728 172.797 146.728 171.994ZM152.58 172.008C152.58 171.411 152.412 170.939 152.076 170.594C151.749 170.249 151.348 170.076 150.872 170.076C150.396 170.076 149.99 170.249 149.654 170.594C149.327 170.93 149.164 171.397 149.164 171.994C149.164 172.591 149.327 173.067 149.654 173.422C149.99 173.767 150.396 173.94 150.872 173.94C151.348 173.94 151.749 173.767 152.076 173.422C152.412 173.077 152.58 172.605 152.58 172.008ZM159.1 169.404C159.38 168.975 159.73 168.639 160.15 168.396C160.57 168.144 161.037 168.018 161.55 168.018V170.552H160.892C160.295 170.552 159.847 170.683 159.548 170.944C159.249 171.196 159.1 171.644 159.1 172.288V175.914H156.706V168.102H159.1V169.404ZM167.048 173.884V175.914H165.83C164.962 175.914 164.286 175.704 163.8 175.284C163.315 174.855 163.072 174.159 163.072 173.198V170.09H162.12V168.102H163.072V166.198H165.466V168.102H167.034V170.09H165.466V173.226C165.466 173.459 165.522 173.627 165.634 173.73C165.746 173.833 165.933 173.884 166.194 173.884H167.048ZM175.746 171.882C175.746 172.106 175.732 172.339 175.704 172.582H170.286C170.323 173.067 170.477 173.441 170.748 173.702C171.028 173.954 171.368 174.08 171.77 174.08C172.367 174.08 172.782 173.828 173.016 173.324H175.564C175.433 173.837 175.195 174.299 174.85 174.71C174.514 175.121 174.089 175.443 173.576 175.676C173.062 175.909 172.488 176.026 171.854 176.026C171.088 176.026 170.407 175.863 169.81 175.536C169.212 175.209 168.746 174.743 168.41 174.136C168.074 173.529 167.906 172.82 167.906 172.008C167.906 171.196 168.069 170.487 168.396 169.88C168.732 169.273 169.198 168.807 169.796 168.48C170.393 168.153 171.079 167.99 171.854 167.99C172.61 167.99 173.282 168.149 173.87 168.466C174.458 168.783 174.915 169.236 175.242 169.824C175.578 170.412 175.746 171.098 175.746 171.882ZM173.296 171.252C173.296 170.841 173.156 170.515 172.876 170.272C172.596 170.029 172.246 169.908 171.826 169.908C171.424 169.908 171.084 170.025 170.804 170.258C170.533 170.491 170.365 170.823 170.3 171.252H173.296Z" fill="#202020" fill-opacity="0.5"/>
<defs>
<clipPath id="clip0_168_16174">
<rect width="144.628" height="131.914" fill="white" transform="translate(84.6855)"/>
</clipPath>
</defs>
</svg>
