<svg width="19" height="18" viewBox="0 0 19 18" fill="none" xmlns="http://www.w3.org/2000/svg">
<path d="M14 6L14.7115 6.23717C15.454 6.48468 15.8253 6.60843 16.0376 6.90306C16.25 7.19768 16.25 7.58902 16.25 8.37171V12.6217C16.25 13.5899 16.25 14.074 15.9952 14.385C15.9087 14.4906 15.8036 14.5796 15.6852 14.6476C15.3366 14.8478 14.8591 14.7682 13.9041 14.609C12.9618 14.452 12.4906 14.3734 12.0236 14.4125C11.8597 14.4262 11.6969 14.4507 11.5363 14.4858C11.0784 14.5858 10.6474 14.8013 9.78547 15.2323C8.66068 15.7947 8.09828 16.0759 7.49963 16.1625C7.31932 16.1886 7.13735 16.2016 6.95516 16.2012C6.35026 16.2001 5.7589 16.003 4.57616 15.6087L4.28849 15.5128C3.54597 15.2653 3.17471 15.1416 2.96235 14.8469C2.75 14.5523 2.75 14.161 2.75 13.3783V9.681C2.75 8.43683 2.75 7.81475 3.11631 7.48018C3.18041 7.42164 3.25107 7.37071 3.32687 7.32842C3.76011 7.0867 4.35027 7.28342 5.53059 7.67686" stroke="#404040" stroke-width="1.5"/>
<path d="M5 5.77523C5 3.41409 7.01472 1.5 9.5 1.5C11.9853 1.5 14 3.41409 14 5.77523C14 8.11787 12.5638 10.8515 10.3229 11.8291C9.80052 12.057 9.19948 12.057 8.6771 11.8291C6.43624 10.8515 5 8.11787 5 5.77523Z" stroke="#404040" stroke-width="1.5"/>
<circle cx="9.5" cy="6" r="1.5" stroke="#404040" stroke-width="1.5"/>
</svg>
