<svg width="24" height="25" viewBox="0 0 24 25" fill="none" xmlns="http://www.w3.org/2000/svg">
<path d="M14 11.5C14 10.9477 14.4477 10.5 15 10.5C15.5523 10.5 16 10.9477 16 11.5V13.5C16 14.0523 15.5523 14.5 15 14.5C14.4477 14.5 14 14.0523 14 13.5V11.5Z" stroke="#202020" stroke-width="1.5"/>
<path d="M14.0079 19.5029L13.2579 19.5007V19.5007L14.0079 19.5029ZM14.0137 17.5L14.7637 17.5022V17.5H14.0137ZM3.14958 19.3284L2.61991 19.8594H2.61991L3.14958 19.3284ZM3.14958 5.67157L2.61991 5.14058L2.61991 5.14058L3.14958 5.67157ZM2.95308 10.7537L2.58741 11.4085H2.58741L2.95308 10.7537ZM2.01058 9.48947L1.26124 9.45797L2.01058 9.48947ZM2.95308 14.2463L2.58741 13.5915L2.58741 13.5915L2.95308 14.2463ZM2.01058 15.5105L2.75992 15.479L2.01058 15.5105ZM21.0469 10.7537L21.4126 11.4085L21.0469 10.7537ZM21.9894 9.48947L22.7388 9.45797V9.45797L21.9894 9.48947ZM20.8504 5.67157L21.3801 5.14058L21.3801 5.14058L20.8504 5.67157ZM21.0469 14.2463L20.6812 14.9012V14.9012L21.0469 14.2463ZM21.9894 15.5105L22.7388 15.542V15.542L21.9894 15.5105ZM20.8504 19.3284L21.3801 19.8594L21.3801 19.8594L20.8504 19.3284ZM21.9437 14.832L22.5981 14.4656L22.5981 14.4656L21.9437 14.832ZM21.9437 10.168L22.5981 10.5344L22.5981 10.5344L21.9437 10.168ZM2.05634 14.832L1.4019 14.4656L1.4019 14.4656L2.05634 14.832ZM2.05634 10.168L2.71079 9.80168L2.71078 9.80168L2.05634 10.168ZM14.0137 7.5H14.7637L14.7637 7.49782L14.0137 7.5ZM14.0064 4.99855L13.2564 5.00073V5.00073L14.0064 4.99855ZM16.5278 4.5189L16.5471 3.76915L16.5278 4.5189ZM17.0336 20.4642L17.0653 21.2135H17.0653L17.0336 20.4642ZM13.8595 20.3541L13.3299 19.823L13.3299 19.823L13.8595 20.3541ZM14.7579 19.5051L14.7637 17.5022L13.2637 17.4978L13.2579 19.5007L14.7579 19.5051ZM15.0162 17.25C15.1574 17.25 15.2687 17.3637 15.2687 17.5H16.7687C16.7687 16.5317 15.9823 15.75 15.0162 15.75V17.25ZM15.0162 15.75C14.0501 15.75 13.2637 16.5317 13.2637 17.5H14.7637C14.7637 17.3637 14.875 17.25 15.0162 17.25V15.75ZM9.99502 5.25H13.5052V3.75H9.99502V5.25ZM13.0079 19.75H9.99502V21.25H13.0079V19.75ZM9.99502 19.75C8.08355 19.75 6.72521 19.7484 5.69469 19.6102C4.68554 19.4749 4.10384 19.221 3.67925 18.7974L2.61991 19.8594C3.3698 20.6074 4.32051 20.9393 5.4953 21.0969C6.64871 21.2516 8.12585 21.25 9.99502 21.25V19.75ZM9.99502 3.75C8.12585 3.75 6.64871 3.74841 5.4953 3.9031C4.32051 4.06066 3.3698 4.39255 2.61991 5.14058L3.67925 6.20256C4.10384 5.77902 4.68554 5.52513 5.69469 5.38979C6.72521 5.25159 8.08355 5.25 9.99502 5.25V3.75ZM2.58741 11.4085C2.97311 11.6239 3.23007 12.033 3.23007 12.5H4.73007C4.73007 11.4664 4.1586 10.5678 3.31876 10.0988L2.58741 11.4085ZM2.75992 9.52097C2.83795 7.66494 3.09146 6.78889 3.67925 6.20256L2.61991 5.14058C1.59036 6.16758 1.34012 7.58185 1.26124 9.45797L2.75992 9.52097ZM3.23007 12.5C3.23007 12.967 2.97311 13.3761 2.58741 13.5915L3.31876 14.9012C4.1586 14.4322 4.73007 13.5336 4.73007 12.5H3.23007ZM1.26124 15.542C1.34012 17.4182 1.59036 18.8324 2.61991 19.8594L3.67925 18.7974C3.09146 18.2111 2.83795 17.3351 2.75992 15.479L1.26124 15.542ZM20.7699 12.5C20.7699 12.033 21.0269 11.6239 21.4126 11.4085L20.6812 10.0988C19.8414 10.5678 19.2699 11.4664 19.2699 12.5H20.7699ZM22.7388 9.45797C22.6599 7.58185 22.4096 6.16758 21.3801 5.14058L20.3207 6.20256C20.9085 6.78889 21.1621 7.66494 21.2401 9.52097L22.7388 9.45797ZM21.4126 13.5915C21.0269 13.3761 20.7699 12.967 20.7699 12.5H19.2699C19.2699 13.5336 19.8414 14.4322 20.6812 14.9012L21.4126 13.5915ZM21.2401 15.479C21.1621 17.3351 20.9085 18.2111 20.3207 18.7974L21.3801 19.8594C22.4096 18.8324 22.6599 17.4182 22.7388 15.542L21.2401 15.479ZM20.6812 14.9012C20.9652 15.0597 21.1507 15.1636 21.2761 15.2427C21.3379 15.2817 21.3653 15.3024 21.3735 15.3093C21.388 15.3213 21.3375 15.2846 21.2892 15.1983L22.5981 14.4656C22.5153 14.3177 22.4043 14.2154 22.3304 14.1542C22.2503 14.0878 22.1613 14.0276 22.0764 13.9741C21.9087 13.8683 21.6804 13.7411 21.4126 13.5915L20.6812 14.9012ZM22.7388 15.542C22.746 15.3706 22.7541 15.1937 22.7476 15.0458C22.741 14.8959 22.7178 14.6795 22.5981 14.4656L21.2892 15.1983C21.2386 15.1079 21.2461 15.0457 21.249 15.1117C21.2503 15.1404 21.2505 15.1822 21.2488 15.2464C21.2472 15.3104 21.244 15.3847 21.2401 15.479L22.7388 15.542ZM21.4126 11.4085C21.6804 11.2589 21.9087 11.1317 22.0764 11.0259C22.1613 10.9724 22.2503 10.9122 22.3304 10.8458C22.4043 10.7846 22.5153 10.6823 22.5981 10.5344L21.2892 9.80168C21.3375 9.71543 21.388 9.67871 21.3735 9.69072C21.3653 9.69756 21.3379 9.71832 21.2761 9.75725C21.1507 9.83637 20.9652 9.94028 20.6812 10.0988L21.4126 11.4085ZM21.2401 9.52097C21.244 9.61528 21.2472 9.68961 21.2488 9.75357C21.2505 9.81779 21.2503 9.85964 21.249 9.88827C21.2461 9.95428 21.2386 9.89206 21.2892 9.80169L22.5981 10.5344C22.7178 10.3205 22.741 10.1041 22.7476 9.95419C22.7541 9.80634 22.746 9.62945 22.7388 9.45797L21.2401 9.52097ZM2.58741 13.5915C2.31959 13.7411 2.0913 13.8683 1.92358 13.9741C1.83872 14.0276 1.74971 14.0878 1.66957 14.1542C1.59566 14.2154 1.48474 14.3177 1.4019 14.4656L2.71078 15.1983C2.6625 15.2846 2.61198 15.3213 2.62648 15.3093C2.63474 15.3024 2.66215 15.2817 2.72387 15.2427C2.84929 15.1636 3.03482 15.0597 3.31876 14.9012L2.58741 13.5915ZM2.75992 15.479C2.75595 15.3847 2.75285 15.3104 2.7512 15.2464C2.74954 15.1822 2.74973 15.1404 2.75099 15.1117C2.75389 15.0457 2.76137 15.1079 2.71078 15.1983L1.4019 14.4656C1.28221 14.6795 1.25903 14.8959 1.25244 15.0458C1.24593 15.1937 1.25403 15.3706 1.26124 15.542L2.75992 15.479ZM3.31876 10.0988C3.03482 9.94028 2.84929 9.83637 2.72386 9.75725C2.66214 9.71832 2.63474 9.69756 2.62648 9.69072C2.61198 9.67871 2.66251 9.71543 2.71079 9.80168L1.4019 10.5344C1.48473 10.6823 1.59565 10.7846 1.66956 10.8458C1.74971 10.9122 1.83872 10.9724 1.92357 11.0259C2.0913 11.1317 2.31959 11.2589 2.58741 11.4085L3.31876 10.0988ZM1.26124 9.45797C1.25403 9.62945 1.24593 9.80634 1.25244 9.95419C1.25903 10.1041 1.28221 10.3205 1.4019 10.5344L2.71078 9.80168C2.76137 9.89206 2.75389 9.95428 2.75099 9.88827C2.74973 9.85964 2.74954 9.81779 2.7512 9.75357C2.75285 9.68961 2.75595 9.61528 2.75992 9.52097L1.26124 9.45797ZM14.7637 7.49782L14.7564 4.99637L13.2564 5.00073L13.2637 7.50218L14.7637 7.49782ZM15.0162 7.75C14.875 7.75 14.7637 7.63631 14.7637 7.5H13.2637C13.2637 8.46826 14.0501 9.25 15.0162 9.25V7.75ZM15.2687 7.5C15.2687 7.63631 15.1574 7.75 15.0162 7.75V9.25C15.9823 9.25 16.7687 8.46826 16.7687 7.5H15.2687ZM15.2687 5.01618V7.5H16.7687V5.01618H15.2687ZM16.5084 5.26865C18.6966 5.32509 19.6778 5.56124 20.3208 6.20256L21.3801 5.14058C20.2676 4.03084 18.6939 3.82452 16.5471 3.76915L16.5084 5.26865ZM16.7687 5.01618C16.7687 5.156 16.6534 5.27239 16.5084 5.26865L16.5471 3.76915C15.8429 3.75099 15.2687 4.31835 15.2687 5.01618H16.7687ZM13.5052 5.25C13.3698 5.25 13.2568 5.14027 13.2564 5.00073L14.7564 4.99637C14.7544 4.30569 14.1931 3.75 13.5052 3.75V5.25ZM17.0653 21.2135C18.9399 21.1343 20.353 20.884 21.3801 19.8594L20.3208 18.7974C19.7336 19.3831 18.8563 19.6365 17.002 19.7148L17.0653 21.2135ZM15.2687 17.5V19.4765H16.7687V17.5H15.2687ZM13.2579 19.5007C13.2575 19.621 13.2572 19.7136 13.255 19.7926C13.2528 19.8721 13.249 19.9192 13.245 19.9481C13.2411 19.9764 13.2396 19.9669 13.2513 19.9387C13.2654 19.9045 13.2911 19.8617 13.3299 19.823L14.389 20.8852C14.6246 20.6502 14.701 20.3709 14.7311 20.1521C14.7582 19.9548 14.7573 19.719 14.7579 19.5051L13.2579 19.5007ZM13.0079 21.25C13.2218 21.25 13.4576 21.2516 13.6549 21.2251C13.8739 21.1957 14.1534 21.1201 14.389 20.8852L13.3299 19.823C13.3687 19.7843 13.4116 19.7587 13.4458 19.7447C13.4741 19.7331 13.4836 19.7346 13.4553 19.7384C13.4264 19.7423 13.3792 19.746 13.2998 19.748C13.2208 19.75 13.1282 19.75 13.0079 19.75V21.25ZM17.002 19.7148C16.8812 19.7199 16.7889 19.7238 16.7101 19.725C16.631 19.7262 16.5849 19.7244 16.5575 19.7217C16.5309 19.7191 16.5426 19.7175 16.5734 19.7292C16.6103 19.7433 16.6536 19.7685 16.6917 19.805L15.6536 20.8878C15.8978 21.1219 16.183 21.1921 16.4108 21.2145C16.6127 21.2344 16.8518 21.2225 17.0653 21.2135L17.002 19.7148ZM15.2687 19.4765C15.2687 19.6953 15.267 19.9374 15.295 20.1397C15.3263 20.3655 15.407 20.6514 15.6536 20.8878L16.6917 19.805C16.7313 19.843 16.7584 19.8863 16.7737 19.9221C16.7863 19.9516 16.7848 19.9622 16.7808 19.9337C16.7768 19.9046 16.7729 19.8566 16.7708 19.7753C16.7687 19.6945 16.7687 19.5997 16.7687 19.4765H15.2687Z" fill="#202020"/>
</svg>
