<svg width="30" height="39" viewBox="0 0 30 39" fill="none" xmlns="http://www.w3.org/2000/svg">
<path d="M27.8192 34.6965C24.1733 37.201 19.7582 38.6667 15.0007 38.6667C10.2432 38.6667 5.82793 37.2009 2.18199 34.6964C0.571707 33.5902 -0.116441 31.4831 0.819812 29.7684C2.76068 26.2139 6.75994 24 15.0006 24C23.2414 24 27.2406 26.214 29.1815 29.7686C30.1177 31.4833 29.4295 33.5904 27.8192 34.6965Z" fill="#202020"/>
<path d="M15.0008 16C19.4191 16 23.0008 12.4183 23.0008 8C23.0008 3.58172 19.4191 0 15.0008 0C10.5825 0 7.00077 3.58172 7.00077 8C7.00077 12.4183 10.5825 16 15.0008 16Z" fill="#202020"/>
</svg>
